<svg width="1000" height="119" viewBox="0 0 1000 119" xmlns="http://www.w3.org/2000/svg" xmlns:xlink="http://www.w3.org/1999/xlink"><defs><path id="a" d="M0 0.426023978L1008.1204 0.426023978 1008.1204 127.402297 0 127.402297z"/><path id="c" d="M0.797722003 0.209433992L999.801814 0.209433992 999.801814 118.049643 0.797722003 118.049643z"/><path id="e" d="M0 0.426023978L1008.1204 0.426023978 1008.1204 127.402297 0 127.402297z"/><path id="g" d="M0.797722003 0.209433992L999.801814 0.209433992 999.801814 118.049643 0.797722003 118.049643z"/></defs><g transform="matrix(1 0 0 -1 -2.52 119.575)" fill="none" fill-rule="evenodd"><g transform="translate(.219 .075)"><mask id="b" fill="#fff"><use xlink:href="#a"/></mask><g mask="url(#b)"><g transform="translate(2 10.855)" fill="#000"><path d="M66.29.824H19.58v1.194L32.61 8.21v76.135h-.103s-3.844.035-7.381-.885c-1.703-.581-3.644-1.19-6.295-3.64-2.655-2.45-16.533-16.774-16.533-16.774l-1.498.58 2.074 24.8H81.33l2.604-24.8-1.497-.58S68.559 77.37 65.903 79.82c-2.655 2.45-4.591 3.059-6.295 3.64-3.536.92-6.59.826-6.59.826l.003-.056V8.21l13.234-6.094.035-1.292z"/><path d="M670.656.824h-46.72v1.194l13.036 6.192v76.135h-.102s-3.85.035-7.386-.885c-1.699-.581-3.64-1.19-6.29-3.64-2.66-2.45-16.542-16.774-16.542-16.774l-1.49.58 2.07 24.8h78.455l2.6-24.8-1.489-.58S672.92 77.37 670.261 79.82c-2.652 2.45-4.588 3.059-6.291 3.64-3.541.92-6.588.826-6.588.826V8.21l13.234-6.094.04-1.292z"/><path transform="translate(86.224 .055)" d="M91.838034 80.9832798L102.491506 87.0726718 102.523119 88.3687916 60.9168833 88.3687916 60.9168833 87.1754131 71.6889034 81.1413431 71.6889034 48.4973015 31.7304784 48.2246422 31.7304784 80.9832798 42.3839509 87.0726718 42.4195151 88.3687916 0.813279284 88.3687916 0.813279284 87.1754131 11.5813477 81.0306988 11.5813477 7.99750942 0.813279284 1.9634395 0.813279284 0.77006091 42.4195151 0.77006091 42.3839509 2.05827754 31.7304784 8.15162122 31.7304784 43.3207255 71.6889034 43.0520177 71.6889034 7.99750942 60.9168833 1.9634395 60.9168833 0.77006091 102.523119 0.77006091 102.491506 2.05827754 91.838034 8.15162122z"/></g></g></g><g transform="translate(2.219 1.026)"><mask id="d" fill="#fff"><use xlink:href="#c"/></mask><g mask="url(#d)"><g transform="translate(282.563 -.952)" fill="#000"><path transform="translate(408.65 11.023)" d="M10.8547542 7.9031695L0.0866858062 1.865148 0.0866858062 0.675720992 41.6889701 0.675720992 41.661309 1.96788921 30.9999333 8.05728131 30.9999333 80.8889398 41.661309 86.9783319 41.6889701 88.2705001 0.0866858062 88.2705001 0.0866858062 87.0810731 10.8547542 81.0509548z"/><path d="M158.002 89.051l.704-1.932.395.174s.043 1.229.348 1.316c.312.087 1.493.486 1.584.265.087-.222.964-4.3 1.142-4.825.174-.53.083-.79-.178-.882-.26-.086-.612-.351-.612-.351l.087-.395s1.055.13 1.446.264c.395.13 1.363.222 1.363.222l-.047.39s-.613 0-.786.526c-.178.53-.921 4.742-.921 5.007 0 .265.304.526.7.57.394.043 1.141.311 1.363.086.217-.217.525-.964.525-.964l.352.13-.352 1.846s-2.545-.305-3.509-.57c-.968-.26-3.604-.877-3.604-.877zm-2.588-1.45s.573 0 .703-.221c.135-.217 2.02-4.872 2.107-5.133.087-.265-.352-.704-.352-.704l.221-.438 1.798.88-.043.305s-.57-.174-.787.174c-.225.352-2.066 4.785-2.24 5.224-.178.443.304.703.304.703l-.174.483-1.754-.747.217-.526zm-4.347-1.142c-.88-.683-2.458-3.07-.786-5.133 1.668-2.063 3.465-2.723 4.829-1.889 1.36.834 1.928 3.513.348 5.793-1.581 2.284-3.6 1.846-4.39 1.23zm.617-1.008c-.664-.517-1.494-2.019-.218-3.73 1.273-1.71 2.589-1.754 3.201-1.316.617.435.881 1.58-.134 3.288-1.008 1.715-2.059 2.375-2.85 1.758zm-4.782-2.414l-.047-.439s-.747-.134-1.577-.438c-.834-.308-1.493-1.45-1.45-2.063.043-.616 1.099-1.36 2.588-1.403 1.49-.047 2.81.087 3.248-.308.44-.395.091-1.494-.964-1.624-1.055-.13-1.975.569-1.975.569l-.13-.308 2.105-2.28.044.877s.703.395 1.537.526c.834.134.964 1.845.569 2.592-.395.743-1.142 1.094-1.668 1.05-.525-.043-3.291-.35-4.299.266-1.012.612 1.316 1.624 1.798 1.624s1.928-.617 1.928-.617l.222.308-1.755 2.063-.174-.395zm-5.445-5.793l-1.494-2.636.313-.174s.608.487.873.265c.265-.221 3.951-2.592 4.26-2.722.308-.13.308-.439.308-.439l-.178-.439.352-.13 1.537 2.632-.395.395s-.439-.526-.66-.66c-.221-.13-.617-.13-.877.043-.265.178-3.292 2.24-3.466 2.419-.178.174-.352.525-.221.743.13.22.308.351.308.351l-.66.352zm2.703-1.545l1.592-.099-.695 1.395h-1.399l.502-1.296zm43.633-42.124l-3.71-4.295 1.296-1.415.174.115s-.119 1.059-.056 1.414c.056.352 1.763 1.534 1.763 1.534l1.592-1.589s-.355-.593-.707-1c-.352-.415-1.178.115-1.178.115l-.237-.237 1.89-1.53.114.238s-.237.525-.06.825c.178.293 1 .94 1 .94l2.067-1.354-.356-.534c-.355-.525-1.588-1.41-2.007-1.648-.407-.237-.881.178-.881.178l-.352-.352 1.53-1.24 4.299 4.536-.297.119s-.758-.238-1.292.118c-.53.352-4.003 3.181-4.359 3.533-.351.352 0 1.296 0 1.296l-.233.233zm2.944 3.592l-.237-.237.356-.589s-1.415-.644-1.593-1.055c-.178-.415-.826-1.707.534-2.474 1.351-.766 2.647-.237 3.414.115.763.352 1.944.711 2.355.123.411-.593 0-1.356-.47-1.77-.474-.412-1-.59-1.356-.59-.355 0-1.059.119-1.059.119l-.414-.233 2.473-1.77.297.355-.415.767s2.24 1.41 2.296 1.94c.059.53-.115 1.77-.822 2.3-.704.525-1.767.703-2.474.233-.703-.47-1.766-.94-2.237-1-.47-.06-1.885.47-1.122 1.178.767.707 1.478 1.237 2.122.881.648-.352 1.06-.47 1.06-.47l.232.53-2.94 1.647zm2.296 6.303l-.648-1.415.411-.178s.237.708.648.475c.415-.238 4.122-1.297 4.122-1.297l-6.062-2.118-.356-.177s6.007-2.826 6.24-3.063c.237-.237.419-1.296.419-1.296l.233-.174 1.177 2.588-.355.06s-.115-.47-.648-.47h-.826l-4.236 2.058 7.065 2.3.703 1.41-.351.12s-.174-.827-.589-.827c-.407 0-5.591 1.3-5.947 1.36-.356.055-.526.703-.526.703l-.419.237-.055-.296zm1.063 4.71c0-.352-.826-3.118-.826-3.118l2.059-.766.063.47s-1.126.707-1.24.94c-.12.238.41 1.711.41 1.711l2.944-.474s-.174-.648-.237-1.055c-.055-.415-.644-.415-.644-.415V45l1.885-.296-.06.415s-.473.174-.473.47c0 .292.237 1.181.237 1.181l2.473-.355s-.118-.589-.118-1.06c0-.47-.174-1.058-.53-1.118-.351-.059-.703-.177-.703-.177v-.47l1.53-.356.588 5.244-.292-.06s-.356-.707-.708-.707c-.355 0-5.125.767-5.477.881-.355.123-.474 1.122-.474 1.122l-.292-.059s-.115-1.118-.115-1.474zm3.762 4.062s.063-1.173.063-1.47c0-.292.293-.53.881-.53.59 0 .94-.058 1.415.12.47.173.648.584.589.944-.06.348-.119 1-.119 1l-2.829-.064zm-3.825-.644h.47s.06.708.474.708h1.703s.064-1 .064-1.534c0-.53.525-1.529 1.063-1.592.525-.055 1.47-.174 2.232-.055.767.118 1.53 1.355 1.53 1.944 0 .585-.056 3.18-.056 3.18h-.47s-.296-.707-.711-.77c-.407-.06-4.884 0-5.355 0-.474 0-.474.648-.474.648h-.292l-.178-2.529zm6.184 11.895l-.292-.119s-.06-.589-.352-.94c-.296-.352-1.474-1.885-1.652-2.241-.178-.348-.296-.644-.652-.763-.351-.118-2.351-.351-2.766-.351-.407 0-.644.703-.644.703l-.296-.06s.296-1.118.296-1.47c0-.355.115-1.355.115-1.355l.292-.059s.123.589.123.826c0 .233.059.41.351.352.297-.06 2.711.177 2.711.177s2.529-1.944 2.88-2.122c.356-.173.297-.94.297-.94l.415.06s.119.94.174 1.35c.06.416-.055 1.36-.055 1.36h-.475v-.589c0-.182-.174-.237-.588 0-.411.233-2.233 1.47-2.233 1.47s1.585 2.41 1.822 2.707c.237.292.825-.41.825-.41h.352l-.47 2.295-.178.119zm-2.059 5.006s.237-.885-.181-1.059c-.411-.178-4.063-1.415-4.825-1.707-.767-.296-1.004.703-1.004.703l-.407-.292s.589-1.711.703-2.24c.119-.53.59-2.178.59-2.178l2.176.47.119.47s-1.822 0-1.944.238c-.115.237-.174.766-.233 1.118-.064.356.059.589.292.648.233.06 4.533 1.648 5.007 1.766.47.119.533-.173.533-.173l.589.055-.77 2.355-.645-.174zm-6.065 3.237l.762-1.708 2.652 2.415-3.414-.707zm-3.537.237l1.24-1.707.352.118s-.177.526-.237.822c-.059.292-.059.356.356.474a2.7 2.7 0 0 0 .822.115c.178 0 .356-.352.356-.352s.588-1.355.648-1.592c.055-.234-.06-.644-.06-.644s-.355-.415-.588-.534c-.234-.118-.53.707-.53.707l-.356-.173.886-2.356.41.234s-.177.47 0 .707c.178.237 5.181 5.184 5.181 5.184l-.118.352s-6.596-1.122-6.951-1.178c-.352-.063-.94.238-.94.238l-.471-.415zm-2.177 12.957l-.293-.411s.411-.534.526-.711c.118-.174.004-.644-.174-.882-.178-.237-2.181-3.706-2.414-4.003-.238-.292-.475-.237-.712-.118a2.547 2.547 0 0 1-.466.178l-.178-.297 1.533-1.592.352.296s-.063.297.119.767c.173.474 2.236 4.18 2.355 4.418.118.233.47.296.47.296l-2.118-7.129 6.714 1.826s-3.304-2.71-3.656-2.944c-.351-.237-.588-.296-.762-.118-.178.177-.356.47-.356.47l-.352-.293 1.233-1.944.534.411s-.178.415.118.648c.293.233 3.944 3.71 4.122 3.77.178.06.648-.53.648-.53l.352.234-1 1.651-6.18-1.473 1.643 5.714-2.058 1.766zm-3.656 2l-.17-.352s.293-.237.467-.352c.178-.119 0-.474-.06-.767-.055-.296-2.058-4.18-2.177-4.591-.118-.415-.355-.356-.593-.297-.233.06-.644.237-.644.237l-.237-.355s1.004-.47 1.356-.708c.351-.233 1.063-.588 1.063-.588l.237.474s-.182.47-.36.525c-.17.064.123.475.178.712.06.237 1.948 4.003 2.063 4.24.118.237.53.351.766.292.233-.055.53-.118.53-.118l.178.414-2.597 1.233zm-5.413 2.003l-2.178.826-.118-.53s.826-.296.644-.589c-.174-.296-.644-2.473-1.114-4.18-.475-1.707.588-2.474 1.41-2.948.83-.467 2.3-.178 2.593.355.296.53 2.062 4.181 2.177 4.537.122.352.944.055.944.055l.297.534s-.593.114-1.063.53c-.474.41-1.533.762-1.533.762l-.174-.352s.47-.41.644-.474c.182-.055.237-.411.182-.703-.064-.297-1.474-3.122-1.534-3.3-.063-.174-.53-.585-1.177-.881-.648-.293-1.944.589-1.944 1.233 0 .652 1.236 4.007 1.355 4.477.115.474.411.237.411.237l.178.41zM137.446 69.08c-.352-.237-.881-1.415-.881-1.415l.178-.118s.233.474.703.355c.474-.118 4.596-1.592 4.948-1.766.351-.178.292-.826.292-.826l.237-.118.885 2.473-.351.174s-.182-.703-.59-.703c-.414 0-3.828 1.474-3.828 1.474s3.706.525 4.418.703c.703.178 1.588.237 1.588.237l.415.885s-5.066 2.174-5.362 2.237c-.293.06-.178.411-.06.763l.119.355-.411.119s-.767-1-1.004-1.415c-.233-.41-.707-1.474-.707-1.474l.415-.055s1 .818 1.53.644c.529-.174 4.065-1.53 4.065-1.53s-2.18-.058-2.948-.292c-.762-.237-3.65-.707-3.65-.707zm-1.944-4.71c-.257-1.115-.644-2.77 1.77-3.418 2.415-.648 4.825-.767 5.536 1.533.704 2.292-1.944 3.118-3.121 3.355-1.178.233-3.83.059-4.185-1.47zm.948-.182c-.181-.569-.592-1.822.996-2.292 1.593-.474 3.418-.296 3.715-.296.292 0 .585.822.703 1.533.119.703-.118.763-1.292 1.178-1.182.41-3.83.825-4.122-.123zm31.27 25.089c-.04-.644-.416-3.296-.297-4.414.115-1.123 1.47-2.118 2.059-2.063.588.06 1.359.174 1.359.174l.174-.23c.178-.236 1.296-1.24 1.944-1.24.644 0 1.589.296 1.589.296s-.767.174-1.411.47c-.648.293-1.415 1.178-1.415 1.178s.534.826.767 1.415c.233.588.233 1.237.355 3.236.115 2.003-1.715 2.932-2.536 2.889-1.119-.06-2.533-.648-2.589-1.711zm.88-.704c-.055-.766-.292-1.825-.177-3.77.122-1.944 1.944-1.063 1.944-1.063s-.767.886.06 1.241c.438.186.706-.47.706-.47s.47 1.525.47 2.825c0 1.297-.533 2.399-1.41 2.474-.711.055-1.533-.47-1.593-1.237zm-33.687-27.977s-.233-1.351-.233-1.762v-1.356h.415s.055.822.352.822h1.592l.115-3.592h-1.767c-.237 0-.53 1.004-.53 1.004l-.414.06-.06-3.182h.475s.292.945.826.881c.53-.055 4.18.064 4.532.064.356 0 .767-.886.767-.886l.292-.059s.237 1.06.119 1.533c-.119.47.06 1.53.06 1.53l-.471-.06s-.178-.885-.767-.944c-.589-.055-2.003.122-2.003.122l.118 3.474s1.648-.237 2.004-.237c.351 0 .707-.297.707-.59 0-.295-.06-.588-.06-.588l.59.237s.059 1 .059 1.356c0 .351.233 1.055.233 1.055l-.47.063s-.06-.356-.47-.356c-.415 0-4.537.237-5.003.293-.474.063-.419 1.003-.419 1.003l-.589.115zm62.076-5.062c.995.119.351 1.114-.297 1.06-.707-.06-.707-1.175.297-1.06zm-1.063 4.829c.88.06.88 1.245-.06 1.122-.885-.122-.822-1.181.06-1.122zM183.502 82.33c-.407-.494.174-1.47.94-.767.763.707-.415 1.41-.94.767zm-18.494 3.062c.024-.533 1.297-.474 1.237.233-.059.708-1.296.945-1.237-.233zm16.19-33.995c-.107-.644.32-.96.743-1.285.43-.316-.213-.537-.743-.213-.537.32-.648.534-1.39.427-.748-.107-.961-.427-.538-.64.43-.214.964 0 1.07-.427.107-.43-1.39-.324-1.813-.324-.435 0-.964-.103-.538-.53.427-.43.214-.324.858-.324h1.387s1.174-.106 1.174-.64v-4.596c0-.75.75-1.604.75-1.604s-.213.858.427 1.284c.644.427.854.107.964.747.107.644 1.28 1.071 1.605 2.031.316.965.21 2.031.743 2.885.537.858 1.07 1.818 1.07 2.351 0 .538-.324.107-.64-.427-.32-.537-.964-1.284-1.284-1.924-.324-.64-.533-2.027-.64-2.458-.107-.427-.747-.747-.747-.747s.32 2.249.32 2.778c0 .534.21.964.854 1.605.64.64 1.067.857.75 1.28-.32.43-.32.75-.32.75l-.75.752-.427-.751h-2.885zm-48.85-2.462c0-.64-.213-1.067 1.285-.96 1.494.106 2.027.644 2.027.644s-.107.747.324.853c.427.103 2.027.324 2.347.427.32.107.32-.64.747-.64.43 0 4.066 1.07 4.707 1.28.64.214-.06 3.486-.036 4.347.178 6.536 2.691 18.655 13.487 23.144 10.795 4.49 19.15 2.332 23.105-.873 3.955-3.209 11.862-10.262 11.649-22.018-.21-11.76-2.565-17.85-7.374-22.45-4.809-4.595-6.524-5.879-6.524-5.879l6.524-8.44 1.174.422-5.876 7.805.96.75s6.093-8.337 6.52-8.555c.427-.213.858.644.858.644l-6.311 8.12.537.538 7.054-8.014s6.84 5.236 9.302 11.436c2.458 6.196 9.725 18.383.213 42.432-3.631 9.176-12.396 14.005-12.396 14.005-.217-.324-.541-.538-1.07-.538-.538 0-7.082 4.983-17.103 5.114-7.484.09-16.45-2.992-19.347-5.647-1.284-1.178-2.351 0-2.351 0s-6.544-6.236-9.089-11.867c-3.529-7.8-4.702-13.25-5.342-16.778-.644-3.529 0-9.302 0-9.302zM289.797 25.53l.636.426-.423.854-.747-.427.534-.853zm-1.605-1.071l.854.537-.534.747-.853-.537.533-.747zm-39.551-.427l1.07-5.13.107-.323s1.391-.427 2.245-.427c.857 0 .533 1.928.213 2.675-.32.747-.853 2.458-1.817 2.992-.96.533-1.925.746-1.925.746l.107-.533zm-87.39 42.906c-.059-.415 0-.77.293-.533.296.237.178 1.24.118 1.715 0 0-.351-.767-.41-1.182zm-1.066 2.186s-.47-.886-.47-1.593c0-.711.059-.77.529-.652.474.115-.06 1.593-.119 2.126l.06.119zm-1.004 3.188c-.178-.292.06-.292.178-.762.118-.478-.233-.478-.233-.949 0-.474.173-5.67.173-6.263 0-.589.475-1.181 1.008-1.24.53-.06.585.474.474.944-.122.474-.711.533-.77.83-.06.292.174.47.53.351.35-.118 1.303-2.011 1.303-2.6s-.474-.233-.952 0c-.47.237-1.004.063-1.474-.233-.47-.3.533-3.604.533-4.197 0-.588-.71-.474-.948-.825-.237-.36 1.304-.36 2.185-.238.89.115-.114.826-.407 1.538-.3.707-.24 1.888-.122 2.303.118.415.474-.533.948-1.655.47-1.123 1.474-1.36 2.004-1.537.533-.174 0-.649-.47-.945-.47-.296-1.534-.474-2.25-.474-.706 0-.11-.352-.173-.648-.06-.293-1.181-.178-1.36-.356-.177-.178.416-.174 1.597-.296 1.182-.115 2.067 0 2.956.593.885.588.47 3.366.352 3.781-.119.415-.886 1.652-.945 2.13-.06.47.945.585.945.885v6.082c0 .593.177 1.185.296 1.719.119.525-.06 1-.415.94-.356-.055-.356-.292-.648-.94-.296-.652.06-1.126.174-1.597.118-.474.178-4.552.118-5.378-.059-.826-.47 1.83-.588 2.541-.119.707-.237 1.889-.237 2.54 0 .649.237 2.483.533 3.012.292.533.711 1.478.711 2.007 0 .534-.237.771-.237.771s-.237-.178-.533-.474c-.297-.297-.297-.648-.297-.648h-1.359l-.237.766s-.174-.118-.411-.292c-.241-.178-.241-.415-.296-1.063-.056-.652.118-.534.118-.948 0-.415.53-.59.767-.712.237-.114-.237-.648-.47-1.003-.238-.352-.297.118-.534.415-.237.296-.648.118-.889.533-.237.415.182.415.296.707.119.297.06.648-.114 1.123 0 0-.652.059-.83-.238zm-6.263-12.704s-.356.356-.234-.114c.115-.475 1.119-.945 2.245-.945 1.118 0 .944-.533.53-.533-.411 0-1.063-.06-1.83.118-.77.178-1.008.06-1.893.293-.885.24-1.3.063-1.596.063-.297 0-.352-.182-.59-.593-.236-.415-.533-.826.115-1.3.652-.474-.055-.415-.351-.652-.297-.233 0-.292.474-.233.474.06 1.24.648 1.3.41.06-.232-1.893-1.236-1.537-1.3.356-.059.292-.232 1.596.064 1.3.296 1.182.707 1.537.944.352.237 1.178.59 1.89.415.71-.178-.178-.237-.59-.474-.418-.237-1.655-.826-1.126-.826.534 0 1.364.06 1.656.237.296.178 1.36.293 1.948.352.593.06 0 .589.123.826.114.237.055 1.126.055 1.478 0 .355-.119.589-.53.83-.41.237-1.477.118-2.189.174-.707.059-.944.414-.826.652l-.177.114zm1.122 4.612c.652-.47 1.482-.648 2.007-.648.538 0 .3-.475-.292-.475-.593 0-1.419.115-2.067.53-.652.415-1.067.648-1.537.711-.474.06-.707-.355-.944-.83-.241-.47-.356-.41-.356-.648 0-.237.533-.648.415-.885-.119-.237-.83-.77-.593-1.063.237-.296.534.115.77.293.234.181.53.36.945.181.411-.181-.944-.711-1.063-.948-.122-.237 0 0 .77 0 .763 0 .882.237 1.178.352.297.118.767.415 1.3.596.53.178 1.241.293 1.004-.059-.237-.356-1.948-.537-1.83-.711.115-.178.59.118 1.182.174.593.063 1.419-.293 1.83 0 .414.296.059 1.715.059 2.011 0 .296.118.411.355.77.238.352-.355.352-1.359.47-1.004.12-1.122.356-1.656.475 0 0-.766.174-.118-.296zm-2.008 4.726c-4.315-4.256-4.492-15.305-4.492-15.305h18.793v22.75c-7.385-.649-9.985-3.19-14.3-7.445zm5.434 2.066c-.352-.059-1.533-.351-1.533-.885 0-.53.588-1.003.944-1.3.356-.296.296-.589.296-.589s-.825-.237-1.473 0c-.652.234-.241.59-.89.767-.652.174-.948-.474-.948-.474s.123-.411.178-.589c.063-.174-.178-.296-.293-.648-.118-.356-.533-.3-.948-.356-.41-.063-.292-.237 0-.355.296-.115.652 0 1.24.118.594.119.712.178 1.064.356.36.178.889.114 1.063.174.182.063-.293-.47-.055-.59.237-.118.825-.058 1.177-.058.36 0 .123.355-.055.648-.178.3 0 .537.178.592.173.056.173.649-.06 1.123-.237.474-.533.296-.83.944-.296.652.767.474 1.241.711 0 0 .064.47-.296.411zm23.99-3.955c-.474-1.363.122-2.249.589-3.193.474-.944 1.245-4.193 1.245-4.193h.592s.174 1.3.174 1.893c0 .585.648 1.826 1.063 2.596.415.767.948 2.363.83 3.426-.119 1.067-2.719 2.897-2.719 2.897s-1.3-2.067-1.774-3.426zm3.311-7.208h.59s-.297 1.506 1.509 1.506c1.802 0 .857-2.632.857-2.632s3.66 4.489-.237 5.141c-3.904.652-2.719-4.015-2.719-4.015zm-2.367 0s-.588 4.726-2.54 4.608c-1.949-.119-2.893-1.834-2.537-2.893.351-1.067 1.3-1.837 1.888-1.837.59 0-.237 1.715 1.067 1.774 1.3.063 1.241-1.774 1.241-1.774l.881.122zm-.059-.948c-.53 0-.53-.885 0-.885h3.545c.652 0 .83 1.003 0 1.003-.826 0-3.545-.118-3.545-.118zm-9.982 6.204v-1.597h.767v.949h.707v-.949h.949v1.067h.826v-1.122h.826v1.592l-4.075.06zm.234 1.24c-.411 0-.59-.529-.115-.529h3.956c.355 0 .474.53 0 .53h-3.841zm-3.719 5.616c-.905-.332-1.893-2.245-1.66-3.604.238-1.363.475-3.189 1.423-3.722.944-.534.352 2.244.83 2.659.474.41 1.296.767 1.648.41.355-.35.533-.825.533-.825h1.186s-.297 6.425-3.96 5.082zm7.856-5.023s.83.767 1.715.415c.885-.36.589-2.248.944-2.13.356.119 1.593 2.778 1.593 2.956 0 .178 1.011 4.311-1.711 4.074-2.715-.233-3.723-4.722-3.778-5.374l1.237.06zm-4.845 7.386c-.296-1.419 1.008-4.608 1.36-5.319.355-.711.355-2.011.355-2.011h1.182s.114 1.067.174 1.6c.063.53 1.478 3.604 1.6 5.374.115 1.774-1.6 3.786-2.011 3.786-.356 0-2.363-2.012-2.66-3.43zm10.223-17.43v-1.538h.826v1.063h.77v-1.122h1.241v1.063h.648v-1.063h.712v1.656l-4.197-.06zm-9.575-3.604h.593v.766h.83v-.766h.881v.707h.948v-.648h.59v1.122h-3.778v-1.004l-.064-.177zm-4.726 5.2c-.193-3.138 1.182-4.608 1.478-4.73.296-.119.948-.056.534.122-.415.178-.352.826-.352 1.356 0 .533.233 1.596 1 1.952.766.351 1.83-.945 2.066-.652.237.296-.292 1.833-1 2.956-.71 1.122-1.734 1-2.604.825-.292-.059-1.003.06-1.122-1.83zm8.804-1.952c.356.063 1.186.415 1.893 0 .707-.411-.182-2.719.233-2.719.415 0 1.478.356 1.779.593.292.237.88 1.655.351 3.193-.533 1.537-2.604 1.355-3.544 1-.949-.352-1.304-1.712-1.186-1.949 0 0 .123-.174.474-.118zm-4.133-.767c0-.352-.06-.533.53-.533h3.01c.593 0 .712.533 0 .533-.707 0-2.86-.21-3.07 0-.21.206-.47.119-.47 0zm1.77.826c.77 0 1.656 1.24 1.597 2.956-.06 1.71-1.123 3.248-1.537 3.307-.415.06-1.474-2.007-1.474-3.252 0-1.237.648-3.011 1.414-3.011zm2.897-4.548c.055-.356-.237-5.79-.237-5.79s1.651-.118 2.126-.118c.474 0 .656-.296.656-.707v-4.556c0-.293 2.829-3.012 3.422-2.952.592.055 2.774 4.374 3.426 5.911.652 1.534 1.537 7.441 1.537 8.034 0 .593-.826.652-1.478.652h-9.274s-.237-.119-.178-.474zm-3.96-2.423c-.059-.237 0-1.359.06-1.833.063-.474-.886-.711-1.182-.711-.292 0 .119.592.233.948.123.352.36.53.36.944 0 .415.114 1.063.114 1.478 0 .415-.588.237-1.063.297-.474.059-1.122.059-1.715-.233-.588-.3-.292-2.723-.173-3.49.122-.766.944-1.537.885-1.83-.064-.296-.47-.474-.763-.474-.296 0 0-.588.23-1.3.232-.71-.06-1.418 0-1.715.062-.292 1.363.415 1.536.593.178.174.415 1.356.297 1.889-.119.533.237 1.952.474 2.363.233.411 1.122.53 1.182.89.059.35-.06 1.596-.06 1.947 0 .352.921.763.411 1.063-.292.174-.766-.588-.826-.826zm2.363 2.897c-.292 0-6.911-.06-7.5-.06-.596 0-.707-.355-.707-.651 0-.297 0-13.353.055-13.59.056-.237.115-1.126.411-.889.293.237 4.671 3.434 4.963 3.667.3.237.475.293.475.53 0 .237.118 3.667.118 4.137 0 .474-.055.53.53.53h2.011v5.852s-.06.474-.356.474zm-.948-7.978v-2.067c0-.3.3-.77.597-1.126.296-.356.766-.53 1.237-.648.474-.119 1.655 1.3 1.774 1.474.114.181 0 .533 0 .948v1.478c0 .292-.297.352-.712.352h-2.359c-.474 0-.537-.411-.537-.411zm-.881-4.608c-.474-.118-.648-.415-.474-.885.177-.478.83-.83.83-.83s0-.237-.534-.356c-.534-.118-2.663.115-3.193-.118-.53-.237-.944-.466-.826-.707.119-.237.53-.237.711-.119.17.119.645.237 1.123.237.474 0 1.063 0 1.122-.296.055-.293-.648-1.004-.83-1.478-.178-.474-.178-.77.237-.707.411.059.593.474.593.648 0 .177.589.826.944.944.352.119 1.241 0 1.834.178.589.178.707.652 1.178.711.474.06.889.06 1.418-.063.534-.115.826-.589.356-.648-.474-.06-1.652 0-1.774-.293-.115-.296-.174-.47-.174-.47s.233.11.826.11c.588 0 1.651-.41 1.774 0 .114.416.351.42.53.712.177.297.118.415.3.415.17 0 .707-.06.707-.06s-.474-.177-.474-.707c0-.533 1.003-.414 1.003 0 0 .415.056 1.123.119 1.356.06.237-.237.24-.53.178-.3-.056-.825-.293-1.126-.233-.296.055-.415.525 0 .588.411.06.89.178.767.885-.115.712-2.422.83-3.189.771-.767-.06-.533-.533-.06-.593.475-.055 1.771-.178 2.127-.296.355-.119-.174-.53-.53-.707-.355-.178-2.07-.238-2.54-.06-.471.178-.06 1.3-.593 1.656-.534.352-.534.237-.59 0-.059-.233-.533-.415-.592-.178-.06.237-.47.415-.47.415zm-24.524 11.049c-.178-.36-.292-1.126.3-1.948.585-.83 1.77-2.486 2.127-2.545.351-.056.237-1.652.351-2.126.123-.47 3.252-7.978 3.667-8.745.411-.767.526-1.77 1.711-1.182 1.178.593 3.96 1.949 3.96 2.304 0 .356.589 1.478.589 1.775 0 .296 3.84 9.985 3.9 10.752.06.77-1.063.83-1.419.296-.355-.53-.296 1.004-.41 1.36-.12.351.177 1.007-.653 1.122-.826.118-1.77-.53-1.77-.53s-11.938.056-12.175-.118c-.237-.178-.178-.415-.178-.415zm3.841-6.382c.063-.352 1.3-3.9 2.067-5.319l1.893-3.49.355.301s-.355.53-.766 1.122c-.415.59-3.312 8.449-3.312 8.449s-.296-.707-.237-1.063zm9.575 4.548c-.356-.355-4.137-1.414-4.908-1.652-.767-.237-3.9.352-4.43.352-.533 0 0-.589 0-.589s0-.237.178-.77c.178-.534 4.67-9.626 4.67-9.626l.471.47-4.315 9.515.89.056 3.9-8.741.173.826-3.13 7.796 1.123-.055 2.66-6.382.292.94-1.949 5.56.949.115 1.537-4.43.53 1.474-1.004 3.37.944.238.593-2.185.648 1.474-.356 1.422.712.056s.174-.886.233-.356c.06.533.474 1.478.474 1.478s-.533 0-.885-.356zm-11.76 1.241l.237-.652s3.545-.174 4.49-.174c.947 0 4.73.174 5.733.297 1.004.114 1.596.351 1.596.351l-.059.411s-1.956-.174-2.719-.233c-.77-.06-9.278 0-9.278 0zm-14.949-18.316c.237-.237.826-.533 1.36-.355.533.178 7.918 3.189 7.918 3.189l-.533.711s-3.6-1.237-4.667-1.652c-1.063-.415-4.078-1.893-4.078-1.893zm-2.007 2.66s.707-.534 1.181-.534c.474 0 9.16 2.956 9.16 2.956l-.296 1.182s-6.679-2.363-7.742-2.778c-1.066-.415-2.303-.826-2.303-.826zm-.593-3.485c1.067-1.3 4.374-2.482 4.726-2.308.356.178-.47 1.422-.47 1.422l8.622 3.545s2.193-.652 2.426-.593c.234.06-.177.708-.53 1.419-.359.707-2.248 3.193-2.6 4.493-.359 1.296-.592 5.255-.651 5.492-.06.238-.411.297-.648-.414-.237-.708-.237-4.608-.237-4.608L133.3 35.918s-.115.356-.296 1.004c-.174.652-.747 2.403-.882 2.007-1.007-2.892.115-6.377 1.178-7.677zm5.97 9.1c-2.188-.948-1.951 1.3-2.13 1.237-.173-.06-.71-.711-.647-1.419.06-.703.956-1.81 3.485-1.003 2.6.825 2.067 3.603 1.597 3.603-.305 0-.119-1.477-2.304-2.418zm.353 7.678c-.226-.194-.174-.707-.115-1.122.055-.415.53-.949.648-1.36.119-.41.767-.351 1.355-.237.593.123 4.023.949 4.493.949.475 0 1.004-.415 1.063-1.6.06-1.178.06-2.538.06-3.19 0-.648.351-1.592.351-1.592s-1.063-.356-.648-1.122c.415-.771 1.597-.475 1.597-.475s1.244-1.774 1.537-2.485c.296-.704 1.004-2.83.593-3.07-.415-.234-2.427-.649-3.016-.826-.592-.178-8.748-3.249-9.867-3.841-1.122-.59-1.952-1.237-1.537-2.008.415-.766 1.241-2.304 4.197-1.478 2.952.826 12.526 4.315 12.7 6.734.178 2.426-.53 5.026-1.3 5.911-.766.886-2.422 1.89-2.422 2.249 0 .352.889 7.026-1.237 8.74-2.13 1.716-3.311 1.36-4.73 1.008-1.419-.36-3.308-.83-3.722-1.185zm-9.334-3.189c-.21-.522-.593-2.304-.415-3.07.178-.77.415-1.004.415-1.004s1.181 1.237 2.481 1.77c1.3.53 3.545 1.36 3.426 2.185-.118.826-.529 1.42-.77 1.89-.237.474-.945.355-1.593.122-.648-.241-3.426-1.597-3.544-1.893zm6.852 3.074c-.53-.32-.06-2.481.178-3.726.237-1.24.533-2.067.885-2.774.356-.711 2.248.352 2.07.944-.177.59-1.3 2.715-1.774 3.6-.474.893-1.063 2.134-1.36 1.956zm38.583-23.867c.293-.36 4.904-6.267 5.378-6.445.474-.178 1.537.296 1.356.652-.174.355-5.434 7.618-5.434 7.618s-1.596-1.474-1.3-1.825zm-9.041-2.367s10.638 10.282 11.578 11.167c.948.89-.233 2.482-1.474 2.185-1.24-.296-2.833-1.774-2.833-1.774l-7.8-.292-1.245-1.77 7.27-.123-.474-.767-7.444.06-.886-1.182 7.445-.237-.474-.826-7.915.06-.948-1.182 7.919-.415c-2.719-4.074-2.719-4.904-2.719-4.904zm-4.548-3.545l-.826.297s-2.782-1.364-3.608-1.834c-.826-.47-3.956-1.889-3.956-1.889l.826-.648s1.502.668 2.012 1.004c.53.352.94-.593.53-.89-.416-.292-1.538-.766-1.538-.766l.711-.356s1.123.534 1.711.771c.59.237 1.182-.122.89-.415-.3-.296-1.423-.885-1.423-.885l1.774-.593 7.271 3.782-.948.415s-2.008-.89-2.482-1.126c-.47-.234-.766.533-.41.885.35.36 1.592.889 1.592.889l-1.063.53s-1.004-.53-1.478-.826c-.47-.297-1.557.268-.94.652.47.296 1.355 1.003 1.355 1.003zm-2.956 1.478s-3.07-1.422-3.896-1.893c-.83-.47-3.727-1.77-3.727-1.77l.949-.77 7.563 3.959-.89.474zm-6.323-.83c-.885-.415-3.426-1.418-3.426-1.418l.885-.648 3.075 1.3c1.122.474 4.844 2.363 4.844 2.363l-.885.711s-3.604-1.893-4.493-2.308zm-.059 2.308c-.47-.241-4.845-2.308-4.845-2.308l.771-.648 7.678 3.723-.703.588s-2.427-1.122-2.9-1.355zm-6.145-4.611c3.841-4.727 13.416-8.275 18.672-10.045 5.26-1.775 10.993-1.949 11.522-1.775.534.178 1.36 1.008.178 1.063-1.181.06-3.133.593-3.133.593s5.733 3.074 6.322 3.549c.593.47.063 1.418-.944.766-1.008-.648-7.09-3.722-7.09-3.722l-2.362.593s5.552 3.01 6.263 3.426c.707.41-.356.885-1.126.533-.767-.36-6.556-3.311-6.556-3.311l-1.656.652s4.845 2.363 5.79 2.892c.948.53-.53 1.004-1.238.593-.71-.415-5.789-2.956-5.789-2.956l-2.248.826s5.789 2.778 6.263 3.252c.47.474-.77.767-1.3.474-.533-.3-6.615-3.193-6.615-3.193l-1.126.53 7.8 3.904s4.252-1.363 7.682-2.011c3.426-.652 10.753-.826 11.642-.712.88.119 2.66 2.186 1.355 1.775-1.3-.415-7.856.059-10.282.355-2.418.293-5.967 1.3-11.756 3.782-5.789 2.478-13.47 9.867-13.767 10.278-.297.415-.415.237-1.182-.356-.766-.592.534-3.01.534-3.01l-1.3-.886s-.83.47-1.3.593c-.475.115-1.42-.534-1.36-.948.06-.415 1.533-.119 1.774-.475.238-.351.178-1.359.826-1.296.652.06.415 1.06.415 1.06l1.77 1.066 1.123-1.003s-2.008-1.067-2.304-1.3c-.292-.238-1.24-.653-1.652-.653-.419 0-3.37-1.715-3.37-1.715l-1.123.708s.945.715 1.241 1.007c.296.297-.296 1.241-.593.949-.292-.293-1.414-1.067-1.414-1.067s-.593.296-.89.77c-.296.475-1.718.554-1.537-.059.36-1.185 0-.77 3.841-5.496zm27.357 4.903c-.589.06-1.889-.707-1.533-1.355.356-.652 1.948-.948 2.952-1.363 1.007-.411 1.181.237.83.948-.356.707-2.249 1.77-2.249 1.77zm-13.411 3.9c.355-.474 1.715-.825 2.481-1.003.77-.178 1.24-.233 1.24-.233l1.538 1.177s-1.596.06-2.482.06H160.6zm-.47 6.916c-1.242-1.893-2.66-4.904-2.779-5.141-.118-.237.119-.474.708-.178.592.296 5.2 4.434 5.852 5.615.648 1.182.284 1.881-.77 2.063-1.356.237-1.77-.47-3.012-2.36zm-11.757-10.46c.704-.648 2.031.063 1.123.885-.593.53-1.834-.237-1.123-.885zm9.393-6.56c.316-.636 1.36.475 2.185-.118.83-.589-.296-1.004.234-1.478.537-.47.77-.233 1.126.063.351.293.237 1.711-.356 2.185-.593.47-1.715.767-2.6.352-.885-.41-.767-.648-.589-1.004zm-8.334-5.374c.178.593-.944 1.652-1.889 2.008-.944.351-1.892-.415-1.418-2.008.474-1.6 1.181-5.145 1.181-5.145s3.13-.47 6.145-.41c3.015.059 4.078 1.77 1.3 3.188-2.778 1.419-5.022-1.533-5.022-1.533s-.767.233-1.182.47c-.415.233-.53.77-.53.77s1.238 2.068 1.415 2.66zm-50.26 38.26c-.075-1.036-1.703-2.739-2.15-2.818-.442-.071-.889-1.478-1.406-2.146-.518-.667-.964-2.15-.964-2.15l-1.557-.074s-.072 1.039-.297 2.45c-.217 1.406-.589 2.145-.885 2.292-.3.15-1.114-1.328-1.928-1.996-.814-.668-4.742-3.56-5.702-4.228-.969-.668-.893-1.478-.226-1.925.668-.442 1.703-.889 2.446-.667.743.225 4.521 3.188 5.11 3.41.596.221.968-.15.743-.3-.222-.147-4.3-3.332-4.964-4.07-.667-.74-1.556-1.704-1.632-2.154-.07-.439 1.411-.735 2.522-.439 1.11.296 2.442 1.328 3.26 1.85.814.517 6.22 4.666 6.741 5.113.518.442 1.928.964 1.26.296-.667-.668-3.038-2.817-3.777-3.41-.743-.593-2.375-2.146-1.486-1.925.89.222 1.557.222 2.893.96 1.331.744 3.777 2.522 5.038 3.34 1.257.814 4.15 2.07 4.667 2.146.517.075 1.335-.297 1.335-.297s-2.296-1.628-3.038-2.15c-.743-.517-1.04-1.481.22-1.256 1.261.221 3.26 1.256 4.221 1.703.968.447 3.932.443 3.932.443s-.818-.518-1.265-1.553c-.442-1.04.894-.668.747-1.186-.15-.521.443-1.04.89-.893.442.15.442-.367.442-.96 0-.589-.668-1.782-.668-1.782l.518.3c.521.292 1.035.518 1.11.964.075.447.672-.446.672-1.185 0-.743-.672-1.632-.672-1.632l.522.15c.518.146 1.11 1.106 1.256 1.332.15.22.518.292.372-.965a17.345 17.345 0 0 0-.518-2.517s.814-.225 1.186.368c.371.592.592 2.37.592 2.817 0 .447-2.074 4.003-2.295 4.52-.222.518-.893 1.186-.297 1.186.593 0 1.407-.668 2.221-.889.814-.225 2.521-.889 2.521-.889s0-.518-.15-.89c-.15-.37-.664-1.406-.296-1.26.371.147.743.518.964.89.225.37.743.075.596-.664-.154-.743-.817-1.783-.817-1.783s.517 0 .738.447c.226.443.818 1.185.743.664-.075-.514-.446-1.778-.592-2.07-.15-.297 0-.965.371-.819.368.15.814 1.11 1.257 1.925.446.818-.518 3.114-.96 3.856-.447.743-2.004 2.367-2.522 2.597-.517.217.297.96.965.663.663-.3 1.703-.964 1.924-1.26.221-.292 1.114-.15 1.26-.518.147-.371-.442-1.557-.07-1.406.367.142.588.296 1.11.814.521.521.296-.89 0-1.336-.297-.443-.893-1.407-.668-1.332.221.075.739.221 1.035.74.297.52.893-.147.814-.74-.07-.593-.517-.893-.885-1.41-.371-.518-.15-1.704.443-.886.592.81.889.668 1.26 1.703.372 1.036-1.114 3.782-1.703 5.26-.593 1.482-6.077 3.778-8.227 4.224-2.15.443-13.854 2.221-14.743 2.668-.89.442-.878 3.406-2.518 3.406-.225 0-.964-1.632-1.039-2.667zm23.117-3.04c0-.663 3.853-2.959 4.224-3.702.372-.743.818-1.778 1.26-2.22.443-.447 1.629-.518 1.483-.226-.15.296-.522 2.3-.522 3.039 0 .743.371 2.146.371 2.517s-.818 3.857-.818 3.857-.513.668-1.035 1.035c-.518.372-.518.522-.964.443-.443-.071-.443-.518-.96-1.332-.518-.814-1.11-1.703-1.557-.814-.447.89-.743 1.565-1.036 1.478-.739-.217-.446-3.402-.446-4.074zM90.058 56.29c-.224-.664-.592-1.553-1.26-2-.668-.446-2.074-2.446-2.296-3.11-.225-.667-3.635-7.116-4.003-7.705-.371-.593-.22-2.225-.22-2.893 0-.664.667-1.185 1.034-.885.372.293 1.557 2.517 1.929 3.035.371.522 2.446 1.853 4.445 3.185 2 1.336 2.075 4.224 1.854 5.41-.226 1.185 0 2.892.371 4.003.372 1.11.443 2.446-.522 2.592 0 0-1.11-.964-1.331-1.632zM77.462 37.918c-.371-.668-1.407-1.929-1.557-2.968-.146-1.039 1.115-.442 1.186.225.075.668 1.185 2 1.632 2.447.446.438.442 1.22-.075 1.477-.443.222-.818-.517-1.186-1.181zm-3.26 1.181c-.198-.494-.96-1.406-.96-2 0-.592.664-.963 1.11-.517.443.443.222 1.26 1.11 1.628.89.372.96 1.411.372 1.411-.597 0-1.482-.15-1.632-.522zm-1.336 2.522c-.292-.593-1.699-2.743-1.849-3.26-.146-.518.296-1.186.89-.593.592.592 1.849 3.335 2.074 3.631.221.297.371.74-.146 1.11 0 0-.672-.296-.969-.888zm7.635-5.853c-.146-.521-.814-1.928-.89-2.296-.074-.375-.52-.964 0-1.185.518-.225.669.146.89.589.221.446.814 1.853.964 2.3.146.442.593 1.256.146 1.481-.592.297-.964-.371-1.11-.889zm2.22-2.446c-.07-.442-.296-.964.297-1.11.593-.15.818.664.818 1.11 0 .447.146.74-.446.668 0 0-.593-.221-.668-.668zm-1.702 7.338c-.83.332-1.407-3.706-1.407-3.706s2.15 3.406 1.407 3.706zm-9.41 4c-.813-.447-1.26-1.261-1.928-2.15-.663-.89.222-1.632.743-1.407.518.221 1.925 2 2.442 2.442.522.446 1.261.818 1.115 1.336 0 0-1.557.22-2.371-.222zm12.302 6.89c-.628-.311-.964-.742-1.557-1.41-.593-.668-1.707-2.22-2.446-2.813-.739-.593-1.853-1.628-2.446-2.446-.593-.818-2.517-2.964-1.853-2.889.668.075 2.078.367 3.481.964 1.407.589 3.114 3.11 4.078 4.37.964 1.261 1.778 3.482 1.778 4.296 0 0-.442.221-1.035-.071zm10.816 5.778s-.15-.668-.297-1.557c-.146-.885-.668-1.482-1.557-3.26-.889-1.778.447-4.592.743-5.335.293-.739 0-5.26.293-5.109.296.146 3.414 6.595 3.56 7.48.146.893-.447 3.41-.818 4.3-.371.889-.739 3.631-.739 3.631l-.893-.075-.292-.075zm24.527-2.225c-.296-.588-.818-1.553-.446-2.96.367-1.41.964-3.038 1.406-3.26.443-.22.89.44.668 1.257-.225.814-.371 2.225-.518 2.818-.15.592-1.11 2.145-1.11 2.145zm-19.86 2.225c-.076-.371 1.11-2.442 1.556-3.331.447-.893 2.3-3.481 3.04-4.67.738-1.186 1.481-1.78 1.999-1.558.517.225.22 3.482-.222 4.224-.446.74-1.039 2.371-3.335 3.628-2.296 1.264-3.039 1.707-3.039 1.707zm13.858 1.26c-.075-.296.146-.888.517-2.445.368-1.557 1.478-5.928 1.478-6.295v-.597s.814-.292.893.075c.075.372 1.775 7.113 1.26 7.334-.52.222-2.078 1.332-2.817 1.707-.743.368-1.331.222-1.331.222zm4.516-9.855l-.221-2.592 1.185-.442.815 1.774-1.779 1.26zm-10.665 9.042c.371-.522.814-2.154 1.257-3.928.442-1.779.371-4.228.442-4.596.075-.367 1.04-.668 1.26-.071.226.589 2.004 6.37 2.004 6.591 0 .221-.964 1.11-2.003 1.336-1.036.221-3.482 2.22-3.482 2.22s.15-1.035.522-1.552zm16.221-3.778c-.142-.447-.739-2.3-.96-2.893-.221-.592.518-1.335.96-.592.447.739.668 1.778.968 2.52.297.74.443 1.257 0 1.403 0 0-.818 0-.968-.438zm-31.19 18.742l-.743-2s2.075-2.37 1.482-3.334c-.588-.965-2.813-4.37-1.557-6.15 1.265-1.781 2.593-2.37 4.892-2.666 2.296-.297 3.632.075 4.003.22.372.147-1.41.815-2.078 1.93-.664 1.11-2 2.963-1.628 4.29.367 1.336.798 2.984.221 4.3-1.557 3.556-4.592 3.41-4.592 3.41zm33.933-18.967c-.072-.593-.593-1.779-.443-2.296.15-.522 1.04-.372 1.04-.372s.146.518.438 2.15c.3 1.632.446 1.778-.071 2 0 0-.89-.89-.964-1.482zm.371 5.41c0-.593.225-1.261.814-1.261.597 0 .818 1.703.818 1.703s.368.296.368.814c0 .522-.664.668-.664.668s-.372.371-.964.446c0 0-.372-1.778-.372-2.37zm-8.223 7.037c-.66.055-.221-2.964.371-4.52.59-1.557 1.85-2.814 2.517-3.482.668-.668 1.186-1.185 2.296-1.407 1.11-.22 1.929-.371 2.075-.15.15.222-.443 1.186-1.182 1.929-.739.739-2.224 3.627-3.038 4.742-.814 1.11-1.261 2.742-3.04 2.888zm-19.118-.225c-.071-.664-.296-1.403-.15-2.07.15-.669.968-2.89 2.375-4.225 1.407-1.332 2.517-2.596 3.331-3.853.818-1.26 1.114-2.146 1.114-1.628s.368 1.7.15 2.296c-.225.593-1.556 3.331-1.707 4.446-.146 1.11-.146 2.295-.146 2.295s-.743.518-2.074 1.036c-1.336.517-2.893 1.703-2.893 1.703zm-7.259 10.598V75.11s2.814-.814 3.628-1.407c.818-.592 3.264-3.339 3.631-4.595.372-1.257.447-1.854 1.632-2.517 1.182-.668 2.592-1.036 3.26-1.115.664-.07-.593 1.929-1.332 2.668-.746.742-1.857 1.114-2.3 2.888-.442 1.782-1.703 4.67-3.113 5.485-1.407.814-2.221 1.26-3.039 1.114-.814-.15-2.367-1.039-2.367-1.039zM71.459 96.374c.15-.297 1.26-2.668.889-3.778-.368-1.11-1.703-2.292-1.628-2.592.075-.297.15-.664.15-.664s-1.632-1.26-2.371-2.3c-.743-1.035-2.964-5.556-2.964-5.556s3.035 1.11 3.778 1.557c.739.443.664-.522.146-1.04-.517-.517-.96-1.777-1.11-2.3-.146-.517-.593-3.255-.593-3.255s1.703 2.07 3.039 2.52c1.331.44 5.11 1.032 5.48 1.032.372 0-1.11.743-1.556.743-.443 0-2.593.075-2.593.075v.74s1.557.37 2.447.296c.889-.072 3.48-.593 3.556-1.11.075-.518-.3-2.075-1.336-2.297-1.035-.221-1.774-.592-2.22-1.26-.447-.668-1.482-2.739-1.036-3.778.443-1.04 2.517-2.075 3.924-1.11 1.407.96 4.963 3.777 5.264 4.817.296 1.035.517 2.296-.075 3.552-.593 1.26 1.481 1.41 1.853.89.367-.518 2.296-4 2.146-5.26-.147-1.26-.96-3.707-4.075-5.41-3.113-1.707-3.485-2.22-4.224-2-.739.222-1.26-1.928 0-2.446 1.26-.517 4.667.222 6.3 1.704 1.627 1.481 5.263 6.449 5.184 8.744-.072 2.296-3.628 7.706-4.592 8.374-.96.664.664.739 1.632.146.96-.593 3.999-4.446 4.295-5.627.297-1.186.518-1.632.518-1.632s.446.146.964.296 2.225 1.186 4.074.071c1.853-1.106 4.446-3.631 5.556-4.07 1.114-.45 2.375-.521 2.446-.225.075.296-.814.668-1.185.89-.372.22-2.593 2.52-3.703 4.002-1.11 1.478-2.667 3.26-4.15 3.481-1.485.222-2.445-.22-2.445-.22l-.593 1.33s3.41.005 4.37-.145c.965-.147 5.118-3.41 6.374-4.225 1.257-.818 1.925-.889 2.668-.667.743.22.221.893-.075.964-.297.07-3.04 2-4.296 4.37-1.26 2.371-3.41 5.781-6.445 5.039-3.039-.74-4.746-2.296-4.746-2.296l-.667 1.406s3.856 2.004 4.817 2.593c.964.592 3.185 2.52 3.41 3.706.221 1.186.146 1.857-.075 2.446-.226.593-1.036 1.628-1.336 1.036-.292-.593-.89-2.668-1.774-3.04-.893-.367-2.446-.588-3.636-1.406-1.181-.814-3.702-2.964-3.702-2.964l-1.186 1.11s2.668 1.708 3.707 2.522c1.035.818 2.074.589 2.52 2.146.443 1.56.59 2.596 0 2.52-.596-.07-.667-.96-1.264-1.331-.592-.371-2.667-.522-3.777-1.114-1.11-.593-1.85-1.26-2.371-1.925-.518-.664-.74-1.407-.74-1.407H83.39s2.224 2.593 2.37 3.407c.147.814.147 4.295-.442 5.113-.593.814-1.11.071-1.26-.446-.147-.518.52-2.664 0-3.407a1071.71 1071.71 0 0 1-2.743-4.003l-.593.226s1.115 1.477 1.19 2.442c.07.964.513 4.003-.522 4.742-1.035.742-2.22 1.335-2.22.964 0-.372 1.185-1.854.884-3.26-.296-1.407-.442-1.925-.667-2.521-.218-.59-.293-2.075-.293-2.075l-1.185-.146s.664 2 .517 2.963c-.15.965-.592 2-1.703 2.668-1.114.668-2.37.889-2.446.371-.075-.517 1.332-2.22 1.482-2.888.146-.668.221-2.3.075-2.743-.15-.442-.225-1.035-.225-1.035l-.743-.15s.225.743-.664 1.85c-.889 1.113-2.742 1.26-2.742 1.26zm10.894-21.56l-1.557-1.26 1.557-2.222v3.482zm3.482-10.67c-2.221-2.37-.593-5.334-.222-7.484.372-2.145-.225-3.185-.225-3.185s2.15 1.11 2.817 2.221c.668 1.11 0 1.482-.15 2.893-.146 1.402.15 2.813.668 3.999.522 1.185 1.557 4.224 1.853 4.817 0 0-2.52-.89-4.741-3.26zM68.499 47.474c1.098-.636 5.896-1.557 8.223-.74 2.739.965 5.26 4.221 5.481 5.26.221 1.04.075 1.557.075 1.557s-2.592-1.778-4.15-2.3c-1.552-.517-4.816-1.181-5.555-1.703-.743-.517-1.557-1.11-2.442-1.256-.893-.15-3.043-.004-1.632-.818zm-.818-3.557c.371-.22 1.723 1.474 1.11 1.783-.588.296-1.481-1.557-1.11-1.783zm6.153 8.816c1.904 0 2.588.226 4.145.668 1.557.447 3.631 3.632 3.631 3.632s-.296.221-1.41.446c-1.11.222-1.775-.668-3.035-1.114-1.26-.447-2.146-1.778-3.557-1.778-1.102 0-2.347-.546-2.833-.783a7.728 7.728 0 0 1-.205-.103s1.485-.968 3.264-.968zm7.555 10.82c-.443-.518-.221-1.407-.818-1.778-.589-.372-2.814-1.186-3.11-1.336-.296-.146.368-.593 1.707-.885 1.332-.3 4.367.517 4.667 2.07l.296 1.557-2.742.372zm1.924 21.78l-.292-.295s1.182-1.553 1.774-2.518c.593-.968 2.596-3.113 2.521-5.635-.07-2.517-1.26-4.299-1.703-4.738-.446-.446 1.407.297 1.703.735.297.451 2.371 4.3.74 6.6-1.629 2.3-4.743 5.852-4.743 5.852zm-6.59-1.556c-1.483.225-2.668.593-2.668.593l.296 2.888s.814.297 1.332.372c.522.075 1.407.517 1.407.517l-.368.894s-.818-.076-1.632-.447-2.296-.518-2.296-.518l-.221-4.967s2.22-.221 3.406-.367c1.186-.15 2.889-.818 2.889-.818l.375.818s-1.039.814-2.52 1.035zm2.813-3.552c-.593.07-.814-.818-.222-.818.593 0 .668.592.072.742 0 0 .746 0 .15.076zm-1.707-3.34c.596-.517.73 1.411.3 1.411-.518 0-.89-.889-.3-1.41zm1.264-.588c-.514-.309-.743-1.85.443-1.04 1.185.814-.075 1.26-.443 1.04zm.74 2.442c-.46-.925.22-1.854 1.26-.964 1.035.893-.96 1.556-1.26.964zm.592 1.707c-.119-.735 1.11-.593 1.335 0 .222.593-1.185.889-1.335 0zm.446 1.478c.814 0 1.115 1.466.075 1.41-1.335-.075-.893-1.41-.075-1.41zm-5.927 4.299l.146-1.11s1.632-.447 2.667-.668c1.04-.221 2.814.075 2.814.075s.08 1.11 1.114 2.07c1.04.965 1.557 1.633 1.557 1.633l-1.185 1.481s-2.371-1.557-3.039-1.778c-.668-.221-4.074-1.703-4.074-1.703zm-7.188-12.447c-.249-.376-1.185-1.929.964-3.41 2.15-1.483 3.406-1.554 3.853-.74.443.814.368 2.371-.518 2.964-.889.593-1.485.743-2.078.89-.593.15-1.925.738-2.221.296zm34.233-1.557s1.406-2.075 2.22-3.407c.814-1.335 1.482-1.557 1.707-2.742.218-1.186 1.407-3.41 2.146-4.374.74-.96 1.853-2 1.853-2s.518 4.817.222 5.706c-.297.89-1.778 1.26-2.075 1.853-.296.593.225.96-.96 2-1.186 1.04-4.821 3.189-5.113 2.964zm6.595-2.593c.367-.889 2.442-2.596 2.884-3.406.447-.818 2.15-3.485 3.41-4.746 1.261-1.256 2-1.256 1.261 1.115-.743 2.37-1.853 4.813-3.189 5.706-1.331.885-4.366 1.331-4.366 1.331zm-.893 8.67c-.518-.26-.146-3.857.964-4.596 1.114-.738 3.335-1.481 4.224-2.074.89-.593 1.925-1.853 2.442-2.743.522-.889.522 1.632.154 2.597-.371.964-2.003 3.185-2.375 3.702-.371.518-.588.668-1.703 1.036-1.11.371-2.963 2.45-3.706 2.078zm-6.295 9.113c-.087-.281 1.407-1.336 2.517-2.814 1.11-1.486 3.707-3.556 5.188-4.228 1.482-.664 3.952-1.407 5.849-1.107 1.41.222 2.746 1.186 1.34 1.332-1.411.15-2.154.371-3.34 1.628-1.181 1.26-1.181 2.225-3.335 2.893-2.146.667-8.002 3.034-8.22 2.296zm-2.893 3.26c.1-.585 2.818-.072 4.964-.74 2.153-.667 4.078-1.335 5.56-1.335 1.481 0 2.963-.075 4.52.814 1.557.893 1.928 1.26 1.557 1.332-.372.079-2.893.3-4.224.893-1.336.592-3.26 1.703-5.114 1.26-1.853-.446-5.334-.818-6.152-1.406-.814-.597-1.186-.372-1.11-.818zm1.336 6.152c-.198-.656 0-1.707-.15-2.225-.146-.517-1.186-1.481-.146-1.632 1.039-.146 2.963.894 4.295 1.115 1.336.221 2.521.146 3.631.517 1.115.372 1.186.965.15 1.482-1.039.518-1.41 1.332-2.892 1.332-1.478 0-4.667.15-4.888-.589zm-7.856 7.184c-1.047 0-1.557-.818-2.15-1.478-.588-.668-1.999-1.264-2.22-1.335-.222-.075-.222-1.26-.222-1.26s.297-1.633.222-1.854c-.075-.218 1.035.446 1.632.668.589.22 1.778 1.335 2.07 2.295.297.965 1.557 1.261 1.632.593.075-.664-.592-2 .147-2.22.742-.226 2.153.738 2.224 1.26.075.518-2.224 3.331-3.335 3.331zm-8.002 0c-1.035-1.778-.442-2.225-.442-2.225s.743 1.186 1.331 1.265c.597.071.965-1.186.965-1.186s.889.668 1.335 1.336c.443.664 1.126 3.375-.075 3.774-.668.225-2.074-1.186-3.114-2.964zM71.61 97.338c-.593.292-4.3 2.074-4.742-.075-.447-2.15 1.407-3.335 2.446-3.039 1.035.296 1.774 1.185 1.332 2.003-.447.814.964 1.11.964 1.11zm.964 2.667c-.743.297-2.225 1.035-3.928.964-1.703-.075-2.964.222-4.817-3.26-1.853-3.485 5.631-5.038 5.631-5.038s-3.039 1.85-3.706 2.592c-.664.74-.218 3.11 1.335 3.703 1.557.597 5.41-.296 5.41-.296s0 .225.075 1.335zm8.52 7.26c-.328-.42.592-1.408.592-1.408s-.739-.667-.814-1.707c-.075-1.035.593-1.402.593-1.402s1.482 3.26 2.889 4.295c1.406 1.04 2.37 2.003 3.556 1.628 1.186-.371 1.557-2.146 1.336-2.889a8.244 8.244 0 0 0-.597-1.406s1.557.889 1.928 1.11c.372.225 2.15-.593 2.15.296 0 .89-1.853.593-1.928.818-.075.222 0 .518-.146.886-.15.375-.447 1.035-.447 1.035s1.557.672.818 1.56c-.743.89-1.557-.225-1.557-.225l-1.482.522s1.11 1.703-.15 1.778c-1.257.075-1.11-1.853-1.11-1.853l-2.221-.593s-.593 1.407-1.336 1.036c-.743-.368.372-2.075.372-2.075l-1.26-1.332s-.669.593-1.186-.075zm-7.113-1.408c-1.008-.576-1.703-2.295-.89-3.56.815-1.257 1.93-1.328 3.26-.589 1.336.74.89 2.146.518 2.889-.367.743-1.849 1.853-2.888 1.26zM35.938 26.76s-.206-.27-1.905-.546c-1.699-.268-3.264-1.086-4.082-2.651-.814-1.561.818-2.719 1.703-2.446.886.272 2.178 1.36 3.197 2.244 1.02.885 1.565 3.268 1.628 3.88l-.541-.481zm-3.944 2.99c-1.36.546-2.311 1.91-2.379 2.178-.07.277-2.655-1.22-3.13-2.307-.474-1.087 2.383-4.015 3.739-3.47 1.36.545 5.307 2.719 5.307 2.719s-2.177.336-3.537.88zm5.236-2.785s-.205-1.158-.474-2.383c-.277-1.22-1.976-1.833-1.498-3.667.474-1.841 2.245-.68 3.331.202 1.091.885 1.498 2.857.479 3.742-1.02.885-1.02 2.513-1.02 2.513l-.818-.407zm3.264 1.427c1.158-.34 2.177-.747 4.15.07 1.975.819 2.244 2.992 1.833 3.877-.407.885-2.38 1.632-2.853.407-.478-1.22-4.896-4.078-4.896-4.078s.608.067 1.766-.276zm-2.039 1.975v.953c0 .34.474.814.68.205.201-.616.407-.885.407-.885h.34s.067 2.513 0 3.059c-.072.54 1.153.68 1.153.272v-1.158c0-.403.139-1.288.751-.742.613.537 1.36 1.288 1.632 2.106.273.814-1.355 3.062-4.556 3.062-3.145 0-1.225-6.26-.952-6.943l.545.071zm1.565-3.062c0-.53.747-2.513 2.991-2.853 2.245-.34 2.585.612 1.838.881-.751.273-3.197 1.427-3.675 1.838-.474.407-1.154.608-1.154.134zm-8.844 6.192c0 .474.885.747.885.202 0-.546-.138-2.518-.138-2.518s.478-.067.75.273c.274.34.408 1.838.475 2.312.067.478.952-.336.952-.68v-2.924s1.838-.067 2.11.134c.27.206.27 1.23.072 1.976-.21.743-1.502 3.193-3.88 3.331-2.38.135-2.652-1.766-2.38-2.45.174-.442 1.154-.134 1.154.344zm-16.454-6.939c0-.474-.206-1.296.814-1.158 1.02.139 2.177.613 2.177.613s.067-.885.613-.743c.541.13 1.154.743 1.154.743s-.34-.949.272-.885c.613.07 2.04 1.975 2.04 1.975s.679-.612 1.09.068c.407.68.407 1.292.407 1.292s.612-.747.881 0c.277.743 0 2.106 0 2.106s.956.814 1.158 1.09c.205.27-.609.815-1.087.542-.478-.273-4.35-2.853-5.236-3.331l-4.283-2.312zm13.601 15.435l-.75-1.087.952-2.379-1.36-.75s-.272 1.703-.34 2.11c-.067.407-1.22-.202-1.157-.613.067-.407.343-2.58.343-2.58h-1.363s-.067.948-.067 1.36c0 .406-1.087.2-1.154-.072-.071-.269-.272-1.56-.272-1.56l-1.838-.546 1.087 2.039-1.632-.067s-2.517-2.652-2.652-3.13c-.138-.474.34-.814 1.494-.814 1.158 0 2.177.545 3.675.545 1.498 0 2.991.068 3.81.27.813.205.88.343 1.904.746 1.02.41 3.264 1.158 3.465 1.774.206.609-.474 1.15-.474 1.15s-.134.822-.545 1.23c-.407.406.067.608-.609 1.153-.683.545-1.296.747-1.43.948-.134.206-1.087.273-1.087.273zm4.896 5.785c.206.134 2.312.541 2.92.68.617.134 0-1.498-.335-1.427-.34.063-3.743-.683-3.743-.683l-.201-1.02s2.92-.205 3.331-.205c.407 0-.273-1.225-.474-1.154-.21.063-3.81.067-3.81.067l-.885-1.498s2.719-1.833 3.403-2.039c.675-.205.336-.612 1.766-.612 1.427 0 3.13 5.034 3.944 6.868.814 1.837.07 3.742-.546 4.287-.608.541-2.45-1.296-3.058-1.77-.613-.478-2.924-1.09-2.924-1.09l-.684-.882s1.09.34 1.296.478zM22.2 43.15c-.625-.625.34-2.106 1.295-1.02.953 1.09-.616 1.703-1.296 1.02zm-.202-4.485c1.766-.139 1.082 2.323.134 2.106-.881-.206-1.9-1.972-.134-2.106zm2.513 2.92c-1.221-.202-1.423-1.427-.269-1.56 1.154-.14 1.087 1.694.269 1.56zm.818.407c-.067-1.68 2.177-.814 2.039.071-.13.885-1.972 1.632-2.04-.071zm-.273 1.43c.885-.134 1.225 1.581-.067 1.498-1.02-.067-.818-1.363.067-1.498zm2.517 1.43c-.739-.422-.067-2.042.818-1.702.886.344.135 2.244-.818 1.703zm-5.168.475c-.463-.929.545-1.632 1.292-.75.75.884-1.02 1.295-1.292.75zM7.92 42.81s-.478-.067-.41-.474c.066-.411 3.2-.957 3.2-.957s-.956-.403-.277-.675c.684-.273 1.7-.067 1.7-.067s-.34-1.427 0-1.364c.343.071 2.45 2.043 2.924 2.652.478.612-.676 1.225-1.36 1.225-.68 0-6.39.407-6.73.407l.953-.747zm9.385 3.13c-.407-.273-.885-.886-.683-1.498.205-.609.478-1.838.07-2.177-.406-.34-2.244-2.312-2.378-2.992-.142-.68-.55-1.497.407-1.632.948-.134 3.398.613 3.944.885.54.273 1.766.953 1.766.953s-.134.541.134.88c.273.345.684.886.684.886s-.478.411-.411.885c.071.478.273.751.273.751s-1.158.613-1.222 1.36c-.067.746.135 1.699.135 1.699h-2.719zm3.671-1.972c.747.063.885 1.83 0 1.766-.952-.067-.747-1.837 0-1.766zm4.624 2.379c-.297-.668.885-1.565 1.359-.68.478.881-1.087 1.292-1.36.68zm-1.767.814c-.245-.735.135-1.632 1.087-.882.952.751-.885 1.498-1.087.882zm-1.636.478c-.897-.561-.474-1.636.34-1.154.818.474.21 1.494-.34 1.154zm5.24-.407c-.134-1.158 1.632-1.632 1.632-.344 0 1.841-1.569.881-1.632.344zm1.498 5.303l.88.814-.2-2.92.54.067s.206 1.158.34 1.426c.139.277.273 1.838.273 1.838l1.498.134s-1.225-2.924-1.427-3.465c-.205-.546.269-.546.609-.139.34.407 1.565 3.059 1.565 3.059l1.225-.542s-.139-.272-.407-.885c-.273-.608-1.838-2.311-1.838-2.311s.202-.403.613-.202c.41.202 2.45 1.834 3.943 2.719 1.498.885 1.087 1.565.68 2.244-.407.68-2.039 1.838-2.857 2.312-.814.474-2.379.952-4.35.407-1.972-.541-2.45-2.652-2.45-3.466 0-.818.07-3.473.34-3.603.272-.139.817.268.817.268l.206 2.245zm-3.47-2.383c.613-.407.818.89 1.087 2.521.273 1.632-.75 2.173-1.905 2.584-1.154.407-2.039-1.426-2.244-1.837-.206-.407-2.04-1.02-3.264-1.905-1.225-.88-1.087-3.058-.202-3.738.885-.684 2.652.541 2.517.885-.138.336-.889.609-.889.609s.818.68 1.43.41c.613-.276 1.226-1.295 1.767-1.43.55-.134 1.292.814 1.024 1.087-.277.273-1.431 1.02-1.431 1.02s.071.545.34.813c0 0 1.158-.608 1.77-1.019zm0-2.719c1.087-.403 2.075 1.15 1.154 1.57-.747.339-2.24-1.159-1.154-1.57zm4.217-2.718c1.225-.407 1.896 1.679.814 1.971-.747.202-2.04-1.564-.814-1.971zm-.546 4.556c-.533-.625.407-2.24 1.43-1.36 1.016.886-.616 2.312-1.43 1.36zm-12.17 8.227c-.139-2.035 1.426-4.15 2.173-4.078.75.067 1.02 1.292.75 2.79-.272 1.493-1.497 5.643-1.497 6.595 0 0-1.292-3.264-1.427-5.307zm-13.4-2.308c.68-1.225 1.971-1.972 1.971-1.972s-.272 0-.272-.478 1.157-.68 1.157-.68l-.41-.817.889-.202c.88-.205 1.493-.344 1.493-.344L6.97 49.611s.201-.273 1.292-.34c1.087-.071 2.308-.135 2.308-.135l-1.016-1.02s.609-.137 1.7 0c1.09.135 3.398 1.155 3.398 1.155s-1.016 1.292-1.901 1.77c-.885.474-2.248 1.02-2.248 1.02s-.27.407-.68.68c-.407.272-1.561.272-2.106.34-.546.066-1.43.612-2.178 1.564-.747.948-2.379 2.106-2.379 2.106s-.272-.34.407-1.56zm35.5-1.703c.27-.541-.478-1.02-.478-1.02l1.704-.75s1.153.683 1.833 1.09c.68.411 4.284 1.154 5.643 1.024 1.363-.138 6.394-1.909 8.91-2.177 2.518-.277 3.81 1.9 3.877 4.212.067 2.312-1.426 5.852-5.37 6.8-2.991.72-11.02-1.766-11.495-1.971-.478-.202-1.427-2.924-2.656-4.213-1.225-1.296-3.398-.818-3.398-.818s1.158-1.632 1.43-2.177zm-13.534 18.09c.953.068 5.035.202 5.983-1.153.952-1.364 1.225-3.063.75-5.446-.477-2.379 1.562-6.46 4.624-5.575 3.059.889 5.169 3.603 6.394 4.082 1.225.474 8.772 1.632 11.97 1.292 3.196-.34 5.373-2.517 5.982-4.35.612-1.838 1.36-4.897.818-6.533-.545-1.632 1.632.482 1.837 1.632.202 1.158-.885 7.891-3.813 9.658-2.612 1.58-5.777 2.11-10.06 1.636-4.288-.478-6.6-.751-7.686-1.636-1.087-.885-1.77-.953-1.838-.613-.067.344-.403 3.142-.881 4.49-.684 1.904-2.588 2.244-2.588 2.244s1.09-1.498 1.153-2.312c.076-.818.411-1.837.684-3.13.273-1.292.545-2.106.545-2.106l-1.292-.272s-.612 2.039-1.36 5.097c-.75 3.063-4.393 4.213-5.306 4.355-1.766.272-5.848-1.158-5.848-1.158l-.068-.202zm-5.235.139c.134-.613-.273-1.024 2.039-1.77 2.311-.747 3.947-.613 5.374-.546 1.426.071 2.379-1.225 2.039-2.379-.34-1.158-.814-4.082-.546-4.694.273-.609 1.43-2.58 1.43-2.58l.882.474s-1.7 2.857-1.221 4.489c.474 1.632.474 4.556-.344 5.168-.814.609-.881 1.02-2.379.814-1.493-.205-3.125.071-4.69.411-1.565.34-2.517.814-2.517.814l-.067-.201zm19.516-32.85c2.996-2.79 7.208-.68 9.998 1.158 2.786 1.838 7.547 3.671 7.547 3.671l.277-.952s-4.086-2.719-5.512-3.533c-1.427-.818-4.83-4.426-5.102-5.105-.273-.68 3.126 1.292 4.49 2.244 1.362.952 8.776 4.355 8.776 4.355l.88-.885s-6.8-3.944-8.977-5.576c-2.174-1.632-5.098-7.548-4.145-6.327.948 1.23 5.235 3.877 7.618 5.513 2.379 1.632 7.271 3.398 7.271 3.398l.613-1.09s-6.05-3.197-8.026-4.896c-1.972-1.7-4.418-5.37-3.873-4.83.542.546 4.758 2.795 6.323 3.81 1.565 1.02 7.279 2.786 7.279 2.786l.268-.948s-6.322-4.557-6.935-5.17c-.612-.612-.478-1.362 1.494-.746 1.976.609 7.48 3.537 7.48 3.537l.344-.89-3.335-2.99s4.695.683 6.121 1.09c1.427.407 8.91 2.584 8.91 2.584s-3.876 2.178-7.005 3.604c-3.126 1.427-7.548 9.112-9.113 13.941-1.56 4.83-6.12 3.063-6.867 2.383-.751-.68-6.596-5.987-7.074-6.465-.474-.474-3.943-3.943-7.207-3.604-3.268.34-2.383 6.189-2.383 6.189s-3.126-3.466-.135-6.256zm7.82 10.065c-2.924.885-4.216-1.225-5.713-3.81-1.494-2.584 1.971-4.556 3.402-3.33 1.426 1.22 7.14 5.78 7.14 5.78s-1.904.479-4.828 1.36zm5.035 1.02s-1.802 1.679-3.063 2.177c-2.244.885-4.145.272-5.777 0-1.636-.269-3.608-2.517-3.608-2.517l.206-3.332s1.636 3.13 4.422 4.355c1.675.731 6.457-.684 7.48-1.023l.34.34zm76.93 25.084l1.043-1.114 3.271.85.526 1.177-4.84-.913zm.845 3.596l4.32-1.573.651.984-5.753 1.703.782-1.114zm-1.766 2.683l7.658-2.553.652.984-9.16 2.877.85-1.308zm7.59.459l1.309-.396.85 7.852-1.83 2.62-.328-10.076zm2.747.912l1.047 1.115.395 3.141-.92 1.439-.522-5.695zm0 19.237c1.178-.194 1.3 1.213.13 1.505-.782.198-1.308-1.308-.13-1.505zm.652 3.86c1.264-1.351 2.75-.328 1.968.984-.79 1.304-2.877 0-1.968-.984zm2.944 2.288c.861-1.64 2.359-.26 1.964.656-.391.917-2.683.723-1.964-.656zm4.517-17.007c-.98-.459-.328-3.272 2.62-1.703 2.94 1.572 7.914 4.757 17.268 4.907 12.301.198 18.387-4.71 18.387-4.71.786-.391 2.418 1.241.719 2.355-4.707 3.075-11.906 4.497-19.039 4.58-11.515.13-19.454-5.196-19.955-5.43zm-1.048 18.975c.198-1.703 2.292-1.177 1.897.13-.391 1.309-1.991.712-1.897-.13zm4.647.324c-.54-1.347.98-2.027 1.506-.786.533 1.272-1.245 1.438-1.506.786zm5.17-4.256c-2.423 1.704-3.32 1.968-7.066 1.901-3.667-.067-7.92-3.928-7.46-7.852.457-3.924 7.068-7.196 7.068-7.196l.913.522s-3.86 2.683-4.643 4.84c-.786 2.162-.723 4.387 3.399 6.09 4.125 1.695 10.404-2.094 10.404-2.094l.265.391-2.88 3.398zm2.943-9.025s-2.817 6.28-6.674 5.56c-3.86-.72-4.122-3.663-3.6-4.971.526-1.308 2.75-3.205 5.299-2.423a55.501 55.501 0 0 1 4.975 1.834zm-2.75 14s-1.043-1.96-1.245-2.615c-.194-.656.269-1.115.526-.787.264.328.719.391.719.391s1.572.135 3.272-2.746c.758-1.284 3.465-7.721 3.465-7.721l.854.067s-.652 5.496-2.549 8.508c-1.9 3.007-5.042 4.903-5.042 4.903zm8.504-5.82c-.716 0-.257-.787-.064-1.573.198-.786.526-1.438.526-1.438l1.502.197s.197-.265.197.85c0 1.114 1.438.589 1.438.063 0-.522.068-.913.068-.913l1.438-.13s.391.521.656 1.438c.26.913.26 1.632-1.047 1.632-1.312 0-4.714-.126-4.714-.126zm5.496-7.394c.459 1.439.526 3.335-3.007 3.335-3.533 0-2.288-3.402-2.288-3.402s3.529-.063 5.295.067zm10.926-2.161c2.687-.85 4.715.656 4.584 3.99-.134 3.34-4.908 3.534-5.896 2.486-.976-1.043-3.528-4.71-3.528-4.71s2.157-.913 4.84-1.766zm-3.6 6.935s3.865 1.77 7.33 2.225c3.466.458 6.019-2.814 5.039-5.17-.984-2.354-4.904-5.361-4.904-5.361l.913-.59s4.513 2.945 5.425 4.186c.921 1.244 3.249 5.476-.454 8.835-3.466 3.138-9.946.455-11.385-1.047-.897-.94-2.224-2.62-2.224-2.62l.26-.458zm16.62.85c0-1.309 1.965-1.241 1.965 0 0 1.244-1.964.786-1.964 0zm-1.702 4.449c-.802-.561.458-2.288 1.312-1.438.85.85-.652 1.896-1.312 1.438zm-3.335 2.355c-.818-.715.13-2.157 1.11-1.177.984.983-.589 1.635-1.11 1.177zm-4.185-.391c.09-1.371 1.83-1.051 1.766.063-.067 1.114-1.833.917-1.766-.063zm-3.798-.98c.305-1.205 1.77-.66 1.703.26-.067.917-1.963.783-1.703-.26zm-7.326-3.406c-2.157-3.336-2.288-7.718-2.288-7.718l.72-.063s2.05 4.924 2.552 6.018c1.047 2.288 4.189 4.509 4.189 4.509s.257-.387.589-.72c.32-.323.387.202.387.202l-.787 3.268s-3.2-2.161-5.362-5.496zm-9.942.984l6.931.067c.067 2.485-2.02 2.944-3.533 2.944-2.94 0-3.398-3.011-3.398-3.011zm3.398 3.6c2.225 0 1.7 2.552-.26 2.481-1.893-.063-1.96-2.482.26-2.482zm2.288 1.043l3.41-1.372.127 4.707-3.402-2.68-.135-.655zm-8.239-.913l3.466 1.245-.067.719-3.138 2.549-.26-4.513zm4.189 3.402s1.043.522 1.7.459c.651-.064 1.307-.59 1.307-.59l2.814 3.269-8.243.525 2.422-3.663zm38.299-81.086s1.11.221 1.327-.332c.222-.553 1.217-3.545 1.55-4.66.34-1.106-1.66-1.216-1.66-1.216l.11-.668 4.549 1.667-.222.44s-1.22-.44-1.553.446c-.332.885-1.11 3.659-1.11 3.659l4.544-4.327 1.11.114 1.996 5.43s.553-2.991.553-4.209c0-1.22-.885-.889-.885-.889l.332-.664h2.217c.775 0 3.545-.446 3.545-.446l-.332.557s-1.439.553-1.77 1.442c-.332.886-.664 3.656-.775 4.32-.115.663 1.774.667 1.774.667l-.114.554-4.987.332-1.664-3.766-3.88 3.323-4.545-1.11-.11-.664zm15.518-1.885c0-.885 1.884-5.434 5.544-5.655 3.659-.225 3.884 1.225 3.99 1.885.111.664 0 1.549-.778 3.106-.774 1.549-3.548 2.873-4.208 2.991-4.327.775-4.548-1.442-4.548-2.327zm3.548.446c0-.557.221-2.217.443-3.22.225-.996.557-1.77 1.331-1.992.775-.225 1.217 0 1.107.775-.11.778-.332 2.991-.443 3.659-.11.668-.786 1.707-1.66 1.885-.557.114-.778-.553-.778-1.107zm5.098.664v-.664s1.331-.889 1.553-1.663c.225-.779.663-2.774.774-3.995.115-1.217-1.545-.664-1.545-.664v-.553l5.098-1.553v.553s-.894.332-.894.889c0 .557-.549 3.987-.549 3.987l5.315-6.872 2.778-.774s-1.11 5.986-1.11 6.429c0 .446 1.663-.221 1.663-.221v.667L235.611 29l.111-.664s.996-.885 1.213-1.217c.225-.336.557-3.552.557-3.552l-4.212 6.097-4.876 1.668-.557.442zm12.973-8.871l2.438-2.88 1.217 2.105-2.102 2.553-1.553-1.778zm19.951-.775l.779-2.548s1.885-.443 2.327-.443c.443 0 1 .553.668 1.328-.332.774-.668 1.22-1.664 1.442-.995.221-2.11.221-2.11.221zm-17.403 3.991s1.328-.446 1.443-1.11c.11-.664.774-4.434.889-5.208.11-.779-1.446-.221-1.446-.221l.11-.668s7.319-1.885 8.65-1.77c1.328.11 2.88 1.106 2.88 1.66 0 .552-.331 2.659-.442 2.884-.11.221-1.553 2.549-3.438 2.88-1.66.293-7.476 1.885-8.812 2.249l-.276.079.442-.775zm11.863-2.552s1.103-.439 1.332-1.107c.217-.668 1.549-4.876 1.77-5.54.221-.664-1.217-.225-1.217-.225v-.443l6.54-1.106-.115.328s-1.217.446-1.324.778c-.11.332-.557 1.885-.557 1.885s1.553-.553 2.442-1.217c.882-.664 1.545-2.553 1.992-2.553.447 0 4.655-.663 4.655-.663l-.11.442s-.665.11-1.44.668c-.778.553-1.11 1.77-1.441 2.327-.332.554-1.439 1.107-1.439 1.107s1.66 1.553 1.439 1.995c-.222.443-.111 1.332-2.11 1.885-1.996.554-10.97 2.217-10.97 2.217l.553-.778zm16.85-4.43c.225-.89 1.663-2.885 1.995-3.77.332-.889 1.767-1.707 2.332-1.663 1.549.11 1.434.331.991 1.331-.442.996-.991 2.549-1.66 3.655-.663 1.11-1.33 1.221-2.327 1.443 0 0-1.553-.11-1.331-.996zm-2.881-1.332c1.217-3.438 4.659-4.99 8.089-4.99 3.438 0 3.995 1.667 3.774 2.442-.222.774.11.995-1.11 2.99-1.218 1.996-4.976 2.66-6.877 2.66-4.212 0-4.358-1.738-3.876-3.102zm34.197 11.887s-2.324-1.581-3.592-2.217c-1.265-.632-3.481-1.9-3.481-1.9s3.275-2.427 4.433-3.273c1.162-.841 4.015-3.797 4.015-3.797l.526.316s-1.055 2.007-1.692 3.058c-.632 1.06-2.533 2.853-2.533 2.853s3.7-1.264 4.647-1.375c.949-.102 2.537-.102 2.537-.102s-.324.422-1.268 1.161c-.952.74-4.54 3.379-4.54 3.379l1.477 1.474-.53.423zm3.485 8.871s-.952-5.916-1.371-8.128c-.423-2.221-.739-3.272-.739-3.272s1.897-.32 3.161-1.063c1.273-.735 4.015-2 4.015-2l-.53 1.897-2.848 1.691s3.801 3.059 5.488 4.75c1.692 1.691 2.324 3.695 2.324 3.695s-5.596-2.213-6.338-2.853c-.735-.633-1.787-1.265-1.787-1.265l-1.375 6.548zm-8.021 3.059l-.32-.317s-1.688-3.69-2.217-4.856c-.53-1.158-2.533-3.481-2.533-3.481s-.633.735-.949 1.264c-.316.53-1.9 1.478-1.9 1.478s.628-2.007.735-3.695c.106-1.691.952-4.54.952-4.54s4.01.739 6.65 2.11c2.636 1.375 5.066 4.224 5.066 4.224s-1.161.32-2.217.32c-1.055 0-3.588-.21-3.588-.21s.53 1.372.53 3.269v3.904l-.21.53zm-3.913 13.194c-.9-.352-1.055-1.158-1.157-2.32-.103-1.162 0-2.533-.316-3.374-.317-.85-1.478-3.276-1.478-3.276l2.003-.423s1.585 2.426 2.007 3.379c.423.948.633 1.687.633 1.687l.841-.419s-.841-1.9-1.157-2.43c-.317-.526-1.162-2.217-1.162-2.217l.948-.213s1.162 1.268 1.589 2.007c.419.739 1.474 2.43 1.474 2.43l.956-.32s-1.059-1.9-1.486-2.533c-.419-.632-1.264-2.533-1.264-2.533l.739-.423s1.9 1.798 2.537 2.747c.632.948 1.157 2.11 1.157 2.11l.846-.316s-.423-2.11-1.055-2.743c-.632-.636-1.166-2.64-1.166-2.64l.636-.106 2.324 2.32c.423.426.846 1.584.846 1.584l1.37-.735s-.738-.952-1.161-1.482c-.423-.525-2.64-2.635-2.64-2.635l.846-.53s2.011 1.265 2.64 1.794c.632.526 1.584 1.691 1.584 1.691l.74-1.69s-1.483-.95-1.902-1.265c-.422-.32-1.268-1.585-1.268-1.585l1.478-.423s1.375 1.798 2.64 2.217c1.268.423 1.687 1.691.948 2.003-.739.32.32.953.213 1.692-.106.739-.845 1.055-1.798 1.055-.944 0 .427 1.794-.739 2.22a3.852 3.852 0 0 1-2.422.103c-.427-.102.103 1.585-.64 2.008-.735.419-2.53 0-2.53 0s-.209 2.003-1.054 2.003c-.846 0-2.43-.632-2.43-.632s-1.265 2.956-3.17 2.213zm-7.488-13.933l-.324-2.427.53-.952 1.268 2.217 1.269-.632-1.166-2.64 1.798 1.478 2.64.11s0 .42.418.945c.427.53 1.166 1.478 1.166 1.478l1.158-.526s1.055-.316.636.526c-.423.841-2.96 2.537-6.018 3.062-3.063.53-5.805-2.64-5.805-2.64h2.43zm26.705-12.033c-1.691-1.055-1.059-1.375-.53-1.478.53-.107 7.5-3.379 8.026-3.695.526-.316 1.691.846 1.051 1.162-.628.316-5.271 3.375-5.271 3.375s2.217 1.798 3.054 2.323c.846.53 2.324 2.533 2.43 3.063 0 0-7.073-3.695-8.76-4.75zm-1.162 17.944s0-2.636.74-2.426c.738.21 2.852 2.003 3.903 2.217 1.06.21 4.438 1.478 4.438 1.478s-2.853-.214-4.438-.317c-1.576-.106-4.643-.952-4.643-.952zm-7.176 7.073c.103-.738 1.58-3.169 2.533-4.327.949-1.161 1.684-1.794 2.64-1.794.948 0 4.536 2.64 5.28 3.063.734.423 3.587 1.58 3.164 1.58-.419 0-5.595-.316-5.595-.316s1.268 2.43 1.478 3.802c.21 1.371.952 4.856.952 4.856s-1.588-1.687-2.114-2.853c-.53-1.157-3.276-5.275-3.276-5.275l-5.275 3.058s.106-1.055.213-1.794zM201.841 74.873l2.743.213 1.272.953h-4.647l.632-1.166zm-2.43 3.592l.743-.948 6.437-.74 1.162 1.265-8.342.423zm2.007 2.43l-.316-.85 3.379.744 1.375 1.896-4.438-1.79zm6.544 5.485l-6.646-3.797v-.74l5.484 2.43 1.162 2.107zm-11.4 3.272l-1.269-1.055.107-3.375.949-.841.213 5.271zm2.003 3.383l-1.05-1.585.84-11.716 1.056 1.58-.846 11.72zm19.742-16.364c-.422-.743-.422-2.007-1.79-2.64-1.37-.632-3.173-1.161-3.698-1.687-.526-.53-.949-.952-1.158-1.794-.217-.846.312-.632 1.055-.213.739.422 2.952.632 4.114.632 1.165 0 2.64.213 3.275 1.375.637 1.158.633 1.9.949 2.742.316.842.739 1.905.739 1.905l-3.486-.32zm-3.271 4.327c.32-.735 1.165-1.798 1.481-2.323.313-.526.735-1.265 1.79-.103 1.056 1.162 2.64.841 3.592.841.949 0 1.897-.213 1.897.423s-1.371 1.162-2.213 1.585c-.841.423-1.478.107-2.114-.107-.636-.21-2.43-1.158-2.742-.739-.316.423-1.162 1.794-1.478 1.688 0 0-.53-.526-.213-1.265zm70.116-24.22c-.106-.533-.264-1.975 0-2.56.265-.589.96-4.967.96-5.927s-.588-2.031.483-2.031c1.063 0 2.62.533 2.936.96.32.43.051 2.082-.376 3.205-.422 1.118-1.387 4.216-2.078 4.805-.696.585-.7.375-1.071.909-.375.53-.854.64-.854.64zm-19.22-7.847c.11-.427-.051-.802.96-.537 1.016.268 2.94 1.549 2.94 1.549s.743-2.348 2.347-2.403c1.6-.051 5.71.589 5.71.589l.107-1.012s-2.88-1.442-3.307-1.976c-.431-.537-.965-2.086.051-1.71 1.016.375 3.367 1.442 3.367 1.442l.213-1.067s-2.51-1.873-2.778-2.351c-.268-.479-.213-1.225.696-1.016.905.217 2.829.107 2.829.107l.427-1.387s-1.707-1.016-2.138-1.336c-.423-.316-.213-1.442.802-1.332 1.016.103 1.925.103 1.925.103l.371-2.078s-1.438-.747-1.87-1.016c-.426-.265-.426-1.122.483-1.229.909-.107 2.458-.589 2.458-.589l.478-1.331s-.695-.59-1.442-.96c-.751-.376-.644-1.281.482-1.281 1.118 0 1.814 0 2.13-.32.324-.32.754-1.174.272-1.174-.486 0-.964-.162-1.497-.32-.53-.162-1.336-1.655.423-1.976 1.766-.324 4.595.534 4.595.534l.376-.858s-1.865-.956-2.352-1.28c-.482-.32-.798-1.336.854-2.987 1.656-1.66 4.007-3.632 5.287-3.738l1.28-.107s-1.118 2.56-1.438 3.2c-.324.645-1.015 2.514-1.284 3.21-.265.69.585.584.802.209.213-.372 2.991-4.272 3.687-4.699.691-.426 1.276-.264.743 1.016-.534 1.28-3.521 6.196-4.003 7.1-.478.91-.747 2.455-.747 2.455s-2.351 1.656-2.778 2.454c-.427.802-4.327 8.812-4.856 11-.534 2.19-1.759 9.714-2.937 10.196-1.173.482-4.113 2.727-6.725 1.814-2.616-.905-4.702-2.399-5.074-2.77-.375-.38-.478-1.02-.853-1.126-.372-.103-1.016-1.012-1.016-1.012zm5.659-17.778c-.585-.644-1.443-1.387-2.186-2.347-.75-.965-.482-2.3.158-3.312.637-1.015 1.332-.75 1.656-.589.316.158.905.59.747.96a8.867 8.867 0 0 0-.585 1.814c-.162.802.478 1.66.798 1.976.32.324.696.589.803 1.016 0 0-.803 1.122-1.391.482zm4.963-4.434c-.261.7-1.439.32-1.118-.478.32-.798.165-1.016.533-1.498.375-.478 1.6-.585 1.336.269-.27.854-.751 1.707-.751 1.707zm-6.457 7.638c.162-.482 1.6-.055 1.6-.055s1.55-2.51 1.87-3.311c.32-.802-.052-2.027-.858-2.399-.798-.38 0-1.177.644-.857.64.32 1.55 1.07 2.027 1.335.478.269.538 1.336-.051 2.723-.589 1.387-1.652 3.849-2.031 4.058-.372.214-.743.482-1.6.103-.85-.372-1.814-.85-1.814-.85l.213-.747zm-3.363 4.802c-.589-.265-1.173-.799-1.762-1.494-.59-.692.106-2.296.695-4.536.589-2.245 1.17-2.561 1.972-2.3.802.268 2.565.853 3.098 1.07.538.214-.162.854-.162.854s-.533.052-1.122.214c-.585.162-1.063.588-1.277.96-.213.375-1.228 3.793-1.228 3.951 0 .162-.056.482.162.482.213 0 1.28.534 1.28.534s.107.213.107.371c0 .162-.27.431-.27.431s-.908-.269-1.493-.537zm-2.726 4.169c.11-.324.644-.222.644-.222l1.924.644c.158.052.534.218.636-.106.107-.316 2.403-4.801 2.458-5.019.055-.213.107-.585-.055-.644-.162-.051-1.012-.53-1.012-.53l.427-.584s.64.265 1.229.423c.589.162 1.012 1.39.747 2.193-.269.798-1.012 3.362-1.814 4.587-.802 1.233-1.98.96-2.51.747-.533-.213-2.564-.905-2.564-.905s-.213-.268-.11-.584zm1.497 2.133c.376.159.482 2.296-1.173 2.403-1.656.107-4.699-.589-4.699-3.205s1.043-3.738 2.351-4.058c3.047-.747 3.094.802 3.094.802s-2.884.372-2.829 2.454c.055 2.087 1 2.142 2.027 2.245 1.067.102 1.23-.64 1.23-.64zm-11.104-2.133s-.857-2.3-1.122-2.834c-.265-.537-1.067-2.671-1.067-2.671l1.178-.265s.956 2.031 1.118 2.616l.747 2.723-.854.43zm-4.433-.538c-.317-.798-1.92-3.15-1.92-3.15l1.872-.908s.85 1.869 1.063 2.19c.217.32 1.604 4.22 1.604 4.22l-1.066 1.118s-1.233-2.672-1.553-3.47zm-3.466 2.992c-.43-.965-1.87-3.9-1.87-3.9l1.226-.803s1.185 2.047 1.656 2.94c.588 1.122 1.758 3.896 1.758 3.896l-1.332 1.016s-1.015-2.19-1.438-3.15zm-23.437-3.043l1.118-.482-5.71-2.668 1.336-.268 5.232 2.03.636-.481-3.683-1.87 1.494-.481 3.205 1.762.375-.747-2.086-1.229 1.015-.747 2.031 1.067.376-.695s-1.285-.905-.858-1.063c.427-.162 20.825-6.41 22.05-6.572 1.233-.158 3.434.467 3.434.467.557.197 1.834.56 2.197.56.36 0 1.446-.758 1.838-.987.395-.23.166-.688-.261-1.051-.43-.36-1.968-.558-1.968-.558s.13-.624.755-.952c.62-.332 2.69-.952 3.019-.952.328 0 1.181.296 1.572.593.4.292 2.237 1.213 2.925 2.03.687.827-1.285 4.304-2.233 5.355-.952 1.051-2.134 1.442-2.691 1.41-.561-.035-2-.655-2.92-1.05-.921-.392-2.79-.064-3.908.067-1.115.13-6.465 2.13-6.96 2.296-.493.162-1.971.592-2.955 1.675-.984 1.083-2.098 1.972-4.102 2.426-2.003.463-5.58-1.999-5.58-1.999s-.983.458-1.248.691c-.265.23-.818 1.048-.818 1.048s.589.201 1.672.885c1.082.691 1.145 1.545 1.28 2.035.13.494-.265 1.415-.265 1.415l1.348.79s-.13-.988-.13-1.316c0-.328.13-2.3.13-2.3l.853-.031s.23.885.265 1.181c.031.296.193.952.193 1.478s-.26 1.38-.26 1.38l1.54.817s.068-.36.198-.557c.135-.198.23-.593.526-1.182.296-.592.198-2.726.198-2.726l.655.166s.198.691.364 1.15c.162.458 0 1.54-.166 1.971-.162.423-.494 1.901-.494 1.901l1.024.723s.885-.462.98-.592c.102-.13.36-.984.36-1.708 0-.723-.194-3.019-.194-3.019h1.114s0 .135.067.526c.063.391.427 2.889.427 2.889s.427-.13.652-.297c.229-.162 1.252-.948 1.252-.948s-.102-.462-.296-1.087c-.197-.624-.786-1.774-.786-1.774l.85-.624s.66 1.217 1.023 1.908c.36.688 1.738 3.217 1.964 3.64l.889 1.643-.727.625s-.427-.395-.589-.656c-.162-.265-.656-.885-.656-.885l-.265.324.79 2.134-.79.754-1.177-2.228-.526.328s-.067.521 0 .948c.063.427.423 2.497.423 2.497l-1.016.427s-.328-.687-.426-1.086c-.095-.392-.72-2.063-.72-2.063l-.497.26s.067 1.083.201 1.577c.13.49.49 1.806.49 1.806l-1.051.328s-.589-1.739-.786-2.003c-.198-.261-.364-1.182-.364-1.182l-.423.49.328 2.727-1.316-.032-.193-2.497s-.826-.063-1.186-.198c-.36-.134-1.604-1.015-1.604-1.015l-3.778.426-.031-2.659s-1.411-.79-2.067-1.28c-.66-.494-3.778-2.197-3.778-2.197l-1.968.588s-.26-1.312-1.213-2.165c-.952-.854-5.516-2.399-6.109-2.758-.589-.364-1.802-1.083-1.802-1.083l1.87-.23 7.096 3.016zm-1.418 7.717c-.032-.391.79-2.426 1.675-2.92.885-.494.755-.822 3.446.854 2.69 1.675 3.544 2.165 2.628 4.038-.72 1.466-1.68 1.442-1.68 1.442s.17-.588.364-1.082c.197-.494-.751-1.545-1.767-2.067-1.023-.526-2.465-1.478-3.09-1.217-.624.265-1.576.952-1.576.952zm-8.077-2.426c-.356-.166-.245-4.631 1.49-4.659 1.96-.036 4.903.727 5.832 1.474.932.743 1.312 2.62.6 3.651-.893 1.304-1.86 1.213-1.86 1.213s.367-.746.556-1.118c.19-.375 1.13-1.648-1.726-2.434-2.703-.747-3.498-.458-3.869.103-.371.56-.668 1.94-1.023 1.77zm-1.676-1.304c-.099-.561-.565-2.24-2.15-2.707-1.584-.462-2.426-.557-2.888-.648-.467-.095-.648-2.73-.376-3.264.463-.909 1.945.044 3.253.6 1.304.562 3.09 1.637 2.9 3.873-.186 2.24-.739 2.146-.739 2.146zm17.992 8.67l-.656-.557s.656-.842 1.96-1.68c1.304-.838 3.358-.466 3.825.652.466 1.118 1.023 2.146 1.114 3.545.091 1.399-1.21 1.584-1.675.743-.463-.838-2.984-3.541-2.984-3.541l-1.584.838zm-11.282-5.967l-.561.838s0 .746.56 1.122c.558.371 1.957.932 2.613 1.209.652.28 1.023.375 1.118 0 .091-.371.743-1.023.743-1.023l1.308.371s-1.027 1.399-1.49 2.05c-.47.653-1.584.933-2.24.843-.656-.095-2.146-.467-3.73-1.775-1.585-1.304.746-4.101.746-4.101l.933.466zm-9.606-2.984c-.095.281-.652 1.304.19 1.866.837.56 3.911 1.493 4.844 1.584.932.091 1.494-2.146 1.494-2.146l.837.186s-.743 1.96-1.675 3.173c-.933 1.213-4.292.747-5.41.186-1.118-.561-2.05-1.865-2.05-2.703 0-.842 1.307-3.544 1.307-3.544l.838.28s-.28.838-.375 1.118zm21.82 10.35c-.027.07-.063.15-.09.24-.364.882-1.285 2.553-3.731 1.625-2.707-1.028-3.078-2.517-2.893-3.73.186-1.214 1.024-2.703 1.024-2.703l.842.28s-1.119 2.142.185 3.074c1.304.937 1.77 1.494 2.608 1.585.842.095 1.68-.747 1.68-.747l.375.376zm-8.764 2.05l-1.123-2.05h1.87l1.023 2.24-1.77-.19zm-5.13.558l-1.304-5.03 2.984 1.398s1.209 2.608 1.395 2.984c.19.371-.277.742-.838.742-.557 0-2.237-.094-2.237-.094zm-5.22 1.402c0-.466 0-5.78-.19-6.342l-.185-.561 2.24.095s1.676 5.129 1.676 5.406c0 .28-.933 1.027-1.49 1.122-.56.09-2.05.28-2.05.28zm-4.663 2.051c.095-1.399.562-9.697.562-9.697l1.584.376-.095 8.108-2.05 1.213zm56.318-10.258l-4.947-1.399-1.21 1.122 1.404 4.197-1.589.743-4.659-1.21-.936.838 1.122 4.288-1.774 1.308-4.572-2.707-1.3.371-.747 5.786-1.308.371s-1.49-1.027-1.956-1.399c-.47-.371-2.608-1.494-2.608-1.494l-.933.653s.186 1.774.277 2.426c.09.652.09 1.96.09 1.96l-1.584 1.023s-2.422-2.331-2.794-2.983c-.375-.652-2.608-1.4-2.703-1.024-.094.372-3.544 5.035-3.544 5.035v-8.208l1.027 2.984.838-1.119-.19-2.983s.19.747.28 1.213c.096.466.467 1.21.467 1.21l1.122-.649-.28-1.68s.557.467.743.748c.19.276.19 1.114.19 1.114l1.209.375s-.182-1.399.094-1.118c.281.277 2.142.933 2.142.933l.467-1.214s-2.885-.652-3.446-2.797c-.368-1.407 1.023-1.865 1.023-1.865s-.186 3.45 3.264 2.892c2.7-.438 1.024-3.264 1.024-3.264s-.652-.932.095-.838c.746.091 1.865.838 1.865 1.585v2.05s1.865 0 1.956-.746c.095-.747.19-2.146 1.308-2.608 1.122-.466 4.287-1.96 5.5-2.893 1.213-.932 4.849-3.45 4.849-3.45l2.422 1.957.557-.838-2.047-1.68.558-.466s1.122.933 1.49 1.119c.379.185 1.307.652 1.122.185-.19-.466-1.214-1.86-1.214-1.86l1.024-.376 1.217 1.213.933-.372-1.494-2.054 1.494-.93.932 1.49h.561s.463.653 1.21 1.494c.746.838 2.33 1.956 3.169 2.798l-1.21.743zm-41.957 37.67c-.186-.557-.933-2.05-1.494-2.422-.561-.375-3.173-.466-3.821-.466-.652 0-1.4-.466-1.213-1.589.185-1.114.746-2.05 1.77-2.517 1.027-.466 1.96-.276 3.078-.09 1.118.185 1.956-.376 2.517-.096.561.281 1.21.652 1.585 1.123.371.466 1.213-.376 1.213-1.028s-.186-1.118-.186-1.584c0-.467.186-.933.838-.747.652.186 1.585 2.05 1.585 2.05s.185-1.77-.091-2.422c-.28-.656-1.123-.932-1.123-1.402 0-.463.47-.463 1.304-.277.842.186 1.123 1.68 1.214 2.612.094.929-.28 5.034-.28 5.034l1.402.372s.652-1.119.743-1.865c.095-.743.095-2.703.095-2.703s.841.652 1.395 1.96c.56 1.304.47 1.956.47 1.956l1.118-.376s-.561-4.007-.186-4.844c.372-.842 2.984-3.173 5.876-3.079 2.885.095 5.311.372 6.62 2.237 1.3 1.865 1.675 2.983 1.675 2.983l1.399-.557s-1.68-3.453-3.17-4.477c-1.493-1.023-5.872-1.865-7.089-1.96-1.209-.09-.367-1.21-.09-1.21.28 0 4.477-.56 6.437.934 1.956 1.49 5.31 5.129 5.31 5.129l-1.398-4.197s-2.984-2.707-4.94-3.078c-1.96-.376-5.13-.747-5.13-.747v-1.399s4.103-.557 5.687-.09c1.585.465 4.94 2.793 4.94 2.793l.095-1.68s-3.36-2.046-4.474-2.513c-1.118-.47-4.477-.837-4.477-.837l.095-1.123s2.142-.28 3.074-.371c.933-.095 4.288-.186 4.288-.186l.19-1.494-1.585-.28.095-3.636 4.196 1.866 3.075-1.024s.375-3.173.466-3.454c.09-.276.933-.837 1.21-.276.284.557 4.757 9.413 5.034 10.444.284 1.023-1.115 1.675-1.49.648-.376-1.023-2.798-5.967-2.798-5.967l-.557 2.426s2.707 6.524 2.98 7.457c.284.937-.834 2.055-1.206 1.589-.38-.47-2.616-4.663-2.616-4.663l-.557 2.236s2.146 4.292 2.422 5.13c.28.837-.652 2.983-1.399 2.05-.746-.932-2.141-3.635-2.141-3.635l-.933 2.05s2.142 3.731 2.237 5.13c.09 1.399-.652 3.821-1.861 4.102-1.218.28-2.336.09-3.545.09-1.217 0-2.517.566-3.264 1.589-.747 1.023-1.213 2.142-2.24 2.142-1.024 0-7.647.095-8.018-.28-.372-.368-.743-.649-.743-.649s-.467.557-.842.372c-.371-.186-.182-.747-1.023-1.028-.838-.276-.838.28-.656.656.185.372-.467 1.21-.838.557-.372-.652-.929-1.584-1.585-1.77-.656-.186-1.865-.186-3.169 0s-2.892.557-3.73.557c-.838 0-1.77-.186-1.77-.186zm40.495-32.015s-.758-1.498-.19-2.11c.874-.933 4.85-.933 4.85-.933s-2.731 1.739-3.356 1.992c-.62.245-1.304 1.05-1.304 1.05zm18.15 6.034c-.684 0-2.36-.127-2.983-.25-.62-.122-3.233-.683-3.976-.995-.747-.308-.936.126-1.928.557-.996.439-2.984.561-4.288.874-1.304.308-3.485-.064-3.485-.064s-.245-1.802-.561-2.92a67.01 67.01 0 0 1-.557-2.177s.438-.312.932-.435c.498-.122 2.115-1.055 2.672-1.245.56-.185 2.422-.992 3.173-1.177.747-.186 1.367-.625 1.987-.439.62.186 3.482 1.494 4.229 1.932.747.431 3.793.372 3.793.372l-.063 1.553s-2.177.435-2.608.435c-.435 0-1.19-.747-1.743-1.182-.56-.435-2.738-.996-3.173-1.43-.435-.435-.932-.313-1.988-.25-1.059.064-1.801.562-2.548 1.182-.743.62-2.051 1.182-2.612 1.43-.557.25-1.245.372-1.119.807.123.438.25.375 1.06.687.806.309 3.54.186 4.101.186.561 0 2.608-.933 3.047-.747.435.186 4.659 1.802 5.532 2.114.873.308 2.3-.063 3.418-.063 1.118 0 2.857.063 2.857.063l-.06 1.557s-2.425-.375-3.109-.375zm.312 7.022c-.996-.063-2.798-.87-3.418-1.304-.624-.439-2.86-2.3-2.86-2.3l-1.74.43c-.497.127-2.86.44-3.48.562-.621.126-2.921 1.059-3.174 1.185-.245.123-.43 1.119 0 1.119h2.798c1.059 0 2.485-.127 3.73-.25 1.245-.122 2.612-.19 3.17.25.56.434 3.978 4.224 4.413 4.473.435.253 4.35.253 4.35.253s-.059 1.426-.37 1.426c-.309 0-2.735-.19-3.36-.19-.62 0-1.363-.557-1.865-.806-.494-.245-1.553-1.43-1.924-1.738-.372-.309-1.988-.62-2.486-1.368-.501-.746-1.802-.56-2.857-.312-1.059.25-2.058.498-3.232.498-1.182 0-4.165-.687-4.604-.81l.25-3.106s2.3-.747 2.92-1.185c.624-.431 1.181-.68 1.928-.933.747-.245 3.604-.371 4.106-.743.494-.371 1.177-1.055 1.924-1.055.743 0 4.785-.063 6.03-.186 1.24-.126 2.36-.126 2.36-.126l.062.747s-2.11.932-2.734.932c-.62 0-2.857.127-3.54 0-.688-.126-1.988-.126-1.988-.126s1.987 1.181 2.355 1.68c.38.497.814 1.18 1.869 1.303 1.055.127 2.79.19 3.418.127.62-.063 2.296-.498 2.296-.498s0 1.43-.43 1.616c0 0-2.921.498-3.917.435zm-18.462 7.46s.929.127 1.553.127c.625 0 1.933-.625 3.17-1.122 1.244-.498 3.983-2.363 4.915-2.672.933-.312 3.166-.253 3.976.498.806.743 3.358 1.988 3.79 2.363.438.372 3.421.186 3.421.186l-.126.929s-1.367.438-2.114.56c-.743.127-2.735.186-2.735.186s-.371-.308-.806-1.24c-.435-.937-1.865-1.68-3.236-1.806-1.364-.123-2.11.87-3.043 1.371-.933.498-2.86.992-3.355 1.118-.502.127-.561.372.245.557.81.19 4.916.625 5.848.996.933.372 3.478 3.418 4.035 3.79.561.375 4.291-.06 4.291-.06l-.75 2.051s-1.984-.185-2.545-.185c-.557 0-2.114-.25-2.798-.376-.502-.09-3.912-3.232-4.536-3.73-.62-.494-5.714-1.118-6.588-1.118-.873 0-3.173-.498-3.173-.498l.561-1.925zm4.351 6.9s3.17-.376 4.106-.376c.932 0 1.49 0 2.114.127.62.126 3.043 1.426 3.54 1.865.498.435 3.917.308 3.917.308l-.44.81s-2.362 0-3.228-.126c-.873-.127-3.79-2.11-4.477-2.422-.683-.313-5.469.56-5.469.56l-.063-.746zm-31.7 1.897c.467.138 1.632.742 2.051.742.42 0 .372-.276.558-1.165.19-.885 1.679-1.909 2.706-2.19 1.024-.276 3.075.514 3.636.61.557.09.838-.467 1.442-.748.605-.28 1.308-.328 1.96-.328.652 0 2.47 0 3.027.233.561.234 1.308 1.119-.23.842-1.536-.28-3.405.557-4.895 1.213-1.49.648-1.585 3.17-1.585 3.17s-2.84-.186-3.774-.095c-.936.094-2.24.56-2.24.56s-.423-.375-.605-.466c-.19-.094-.608-.28-.794-.56-.186-.281-.98-.186-1.49-.186-.513 0-.703-.89-.656-1.308 0 0 .423-.467.89-.324zm.23-4.34c-.091-.276-.51-2.374 1.493-3.026 2-.652 4.754-.747 6.386.328 1.632 1.07 1.917 2.28 2.051 2.56.142.281-.976.795-1.21.605-.232-.182-2.659-2.19-3.263-2.28-.605-.095-2.237-.28-3.497.28a5.248 5.248 0 0 0-1.96 1.534zm-13.1 5.272c-.367-.371-.462-.98-.328-1.494.142-.51 1.822-.138 2.332.048.513.19 1.308.328 1.402.652.091.328-.418.932-.746.98-.328.047-1.166.138-1.494.419 0 0-.79-.23-1.166-.605zm17.201.095c-.043-.89.751-2.565 2.146-2.146 1.399.42 1.118 1.49.937 1.818-.186.328-.984.747-.984.747s-.044-.609-.091-1.075c-.048-.466-.794-.743-1.075-.324-.277.419-.933.98-.933.98zm-8.06 4.054c.651-.328 2.888-.185 3.73.048.837.229 5.868.79 6.71.79.837 0 3.777.047 3.777.047s-.233.514-.7.842c-.466.324-.98.648-1.165.838-.186.186-.79.371-2.146.98-1.347.604-3.73.277-4.517-.048-.798-.328-3.267-2.331-4.058-2.517-.794-.19-2.707.372-3.126.557 0 0 .838-1.213 1.494-1.537zm11.846 13.337c-.245-.21-.122-.7-.205-1.107-.087-.41-.905-1.347-.98-1.88-.083-.53.486-.98.814-1.636.324-.656.656-.74.861-.74.206 0 .28-.118 1.02-.28.735-.166.166 3.553.126 3.924-.043.367-.533 1.636-.739 1.92 0 0-.652 0-.897-.201zm-24.334 7.563c.245-.616.901-.367.984-.166.08.206.245.573.368.573.122 0 .49-.735.98-1.636.49-.9.94-.94 1.063-.857.122.079.739.573.739.573s-.234-.656.446-1.68c.818-1.225 1.474-.73 1.434-.446-.043.284 0 .652 0 .652s.285-.083.57-.814c.288-.74.735-2.008 1.307-2.454.573-.455 1.352-.044 1.312.162-.043.205-.245.774-.166.94.083.162.696-.49.822-1.268.119-.775.53-1.676.775-2.371.245-.696 1.798-.861 1.798-.861s-.08 1.189-.08 1.39c0 .206.242.166.57-.284.328-.447 1.19-2.865 1.513-3.351.324-.494 1.186-.166 1.186.285 0 .446-.407 1.837-.368 1.96.044.122.447-.202.862-.814.407-.613 1.715-3.233 2.248-3.928.534-.696 1.474-.735 1.51-.49.043.24-.036 1.474-.036 1.92 0 .45.482-.162 1.063-.691.57-.534.364-1.842.364-1.842s1.19-.41 1.885-.533c.691-.119-.044.695.691.778.739.08 0-.9 1.067-1.592 1.063-.7.897 1.181.569 1.671-.324.494-2.003.617-2.003.617s-.368 1.106-1.02 1.43a4.55 4.55 0 0 1-1.268.407s-.166.245-.328.411c-.166.166-1.597 1.597-2.008 1.92-.403.329-1.877.574-2.205.656-.328.08-1.592 2.043-2.082 2.415-.49.367-2.458.122-2.458.122s-.976 2.502-1.391 2.818c-.692.537-2.04-.123-2.04-.123s-.699 1.557-.983 1.964c-.285.407-1.758.289-1.758.289s-.408.897-.98 1.43c-.573.53-1.72-.083-1.72-.083s-.738 1.391-1.185 1.881c-.454.49-1.185.04-1.185.04s-.289.656-.74 1.351c-.446.692-.406.044-.529-.367 0 0 .162-1.391.407-2.004zm34.636-21.224c.328.494.367 2.087.205 2.778-.166.7-1.964 6.22-1.964 6.426 0 .201.123.446.372.897.24.45.055 1.588-.25 1.513-.157-.043-1.023-1.762-1.22-2.126-.21-.367-.905-1.308-.866-2.126.04-.818-.49-4.212-.897-4.785-.407-.573-1.39-2.245-1.679-2.7-.28-.45-.328-1.062.984-1.88 1.308-.814 2.458-1.308 3.434-.652.98.652 1.88 2.655 1.88 2.655zm16.905 4.869c-.929-.534-.534-2.253-.534-3.707 0-1.454-1.983-1.454-3.169-1.19-1.19.261-1.984.131-3.047-.395-1.055-.529-4.623-4.232-4.623-4.232l.794-1.458s3.53 1.822 4.715 1.822c.687 0 5.22-.099 6.784-.099 1.06 0 1.194.265 1.328 1.719.127 1.454 1.846 2.774 2.905 2.774 1.055 0 2.778-.265 2.778-.265s-.925 1.324-1.984 1.458c-1.06.13-2.118-.264-3.177-.66-1.06-.399-1.85-2.912-2.64-3.437-.794-.534-3.047-.135-4.232-.135-1.193 0-4.5-1.193-4.5-1.193s1.987 1.853 3.176 2.651c1.19.79 3.173.396 4.627.925 1.455.526 1.06 3.434 1.06 4.359 0 .924 3.307 1.983 3.307 1.983l-.269.388-3.3-1.308zM89.798 26.984s1.719.399 1.719-.53c0-.924-.794-4.757-1.19-5.548-.395-.794-1.849-1.323-1.849-1.323l-.134-.664 10.709 3.042.399 2.778s-1.72-2.114-3.043-2.778c-1.324-.66-2.379-.399-2.379-.399L94.56 25s1.19 0 1.588-.13c.391-.135.656-.929.656-.929l.664 3.442s-.265-.53-.929-1.06c-.656-.529-1.584-.529-1.584-.529l.66 2.249s1.454.794 2.513.794.79-1.059.79-1.059l.929.134.66 3.04s-3.304-1.06-5.291-1.72c-1.98-.664-5.418-1.85-5.418-1.85v-.398zm-1.984-2.644L85.7 22.222l1.19-2.244 1.983 2.509-1.059 1.853zm-14.676-1.983v-.53h1.589c.53 0 .53-.66.264-1.719-.264-1.055-.663-4.888 4.762-3.303 5.418 1.588 4.359 5.287 4.493 5.82.13.526.4 1.98.4 1.98l1.584.53v.66l-5.157-1.455v-.399s1.32.534 1.32.134c0-.395-.459-2.738-.66-4.228-.261-1.987-3.699-3.568-3.572-1.588.134 1.983.663 3.967 1.063 4.366.395.395 1.185.79 1.185.79v.66s-.79-.395-2.375-.924c-1.592-.526-4.896-.794-4.896-.794zm-11.104-1.85l-.134-.53s1.324-.13 1.059-1.323c-.265-1.19-.925-2.513-1.19-3.304-.264-.79-1.983-1.059-1.983-1.059l-.13-.395s6.211.13 8.46.526c2.248.399 3.173.664 3.173.664l.53 1.983-.53.135s-.447-.72-1.055-1.194c-1.194-.924-4.632-1.055-4.632-1.055l.929 2.38s1.055.264 1.719 0c.66-.266.925-.926.925-.926l1.19 3.438s-1.19-1.588-1.72-1.588-1.85.134-1.85.134l.66 1.85s1.85.924 2.91.663c1.054-.268 1.189-1.323 1.189-1.323l.529 2.114s-4.627-.79-5.682-.925c-1.06-.134-4.367-.265-4.367-.265zm-6.081-1.454c0-.794-.13-.925-.79-2.379-.396-.87-.4-1.454-1.455-1.853-1.063-.4-1.853-.4-1.853-.4l-.265-.525h7.271v.526l-1.454.268 2.114 5.157 1.719.13.134.66-7.14-.264v-.66s1.719.134 1.719-.66zm-10.18.66L43.26 14.69s1.85-.533 2.912-.268c1.056.268 1.98 1.454 2.11 2.252.135.79.93 2.51.135 2.644-.794.13-2.644.395-2.644.395zm-5.026.794s1.059-.134.794-.794c-.26-.66-1.584-3.442-2.248-4.232-.66-.79-2.774-1.06-2.774-1.06s5.568-.517 6.216-.66c1.189-.264 7.405-.655 8.855 1.72 1.114 1.821 1.19 3.572.13 4.102-1.059.525-8.59 1.323-10.044 1.323-1.455 0-.929-.399-.929-.399zm24.2 37.019c-1.324 7.14-4.68 8.824-7.805 9.914-4.066 1.419-14.147-.794-15.466-.925-1.324-.13.79 3.304-2.115 5.422-1.157.842-3.837 0-3.837 0s-1.189.925-1.718 1.32c-.53.399-1.225 1.924-4.098 1.584-.787-.09-3.572-1.315-4.363-1.715-.794-.395-5.157 0-6.081.4-.925.395-1.854-.139-1.854-.139s.664-2.509 1.194-3.038c.53-.53 2.51-2.249 3.039-2.38.53-.134 3.702.396 4.892.265 1.193-.134 1.588-2.513 1.588-2.912 0-.395-.794-1.98-.924-2.908-.135-.925 1.32-3.17 1.983-3.833.66-.66.265-1.055-1.328-1.186-1.58-.134-1.32-1.983-1.32-1.983s-.794.655-1.718 1.059c-.925.395-1.72-.404-1.72-.404l.135 1.194c.13 1.19-1.19 2.774-1.719 3.173-.53.395-2.379 1.715-2.643 2.774-.265 1.059-.53 1.589-1.06 1.19-.533-.396-.399-1.85-.399-1.85l-.525-.925-.66.265.265-1.719-.664.13.265-1.718h-.664s.134-.79.399-1.585c.265-.794.399-1.454.925-2.383.525-.92.525-2.114.794-2.643.265-.526.13-1.45-.794-1.585-.925-.13-.66.929-.79 1.984-.135 1.059-1.19 2.114-1.19 2.513 0 .395-1.063.79-1.454.79-.4 0-1.194.929-1.194.929s-.265-.929-.66-.534c-.395.396-1.458.93-1.458.93s-.26-.93-.92-.131c-.664.79-1.455.66-1.455.66l.13-1.055s-.525 0-1.189.395c-.66.395-2.908 1.85-2.908 1.85s.13-1.19-.53-.665c-.664.53-2.114.929-2.114.929s.13-1.324.79-2.51c.66-1.193 0-1.058.66-1.987.664-.925 1.593-1.186 1.593-1.186l-.138-.533 1.063-1.19s-.53-.66.13-1.189c.664-.53 1.19-.925 1.19-.925s-.265-1.454.794-1.718c1.055-.265 1.32 0 1.32 0s-.396-.925.399-.925c.79 0 1.983.395 1.983.395v-.794s.396.13 1.186.268c.798.13 1.853.66 2.513 1.056.664.395 1.193.264 1.853.264.66 0 .135-1.19 0-1.588-.13-.395-.928-.526-.928-.526h-1.32c-.53 0-1.19-.399-1.984-.53-.794-.13-.924-.264-1.584-.395-.664-.138-1.455-.268-1.85-.399-.399-.134-.798-.134-1.588 0-.795.13-.664-.53-.664-.53s-1.19.135-1.585.266c-.395.134 0-.795.395-.925.4-.13.93-1.19.93-1.19S6.901 41.132 7.3 41c.395-.134 1.32-.395 1.853-.395.526 0 0-.798 0-.798s1.186-.13 1.719-.261c.526-.134-1.063-1.06-.269-1.06.795 0 1.984-.529 1.984-.529l.4-.79c.394-.798.92-1.193 2.244-.929 1.323.265 3.177.664 3.177.664l-.664-.928c-.66-.929-.925-2.909-.395-2.909.525 0 2.378-.264 2.378-.264s.925 0 .897-.47c-.043-.795-.928-.799-2.114-.799-1.193 0-2.248.53-2.248.53l-.66-.66s-.925.66-1.454.395c-.53-.26-.4-1.45-.794-1.45-.396 0-1.19.13-1.585-.27-.395-.394-.794-1.319-.794-1.319s0-.399.264-.794c.265-.4.53-.794.53-.794s-.66 0-.66-.53c0-.526 2.51-.925 2.51-.925V24.66c0-.664 1.588-.264 1.588-.264s.13-.53.79-.53c.664 0 1.324.794 1.324.794s0-.664.66-.664 1.059.4 1.059.4.525-1.19 1.324-.4c.786.795.786 1.324 1.45 1.455.66.134 2.778-.396 3.303-.396.534 0 .93-.79 1.459-1.588.525-.79 1.715-.526 1.715-.526v-1.454c0-.924 1.722-1.719 2.248-1.719.53 0 2.778.66 3.568.929.799.26 1.328-.929.53-1.06-.79-.134-4.624-1.457-4.624-1.457l1.32-4.098 5.556 2.644-.794 2.248s2.114.265 3.039.794c.924.526 1.588 3.569 1.588 3.569s17.32-1.06 23.797-.265c6.48.79 14.94 3.702 17.845 4.493 2.912.798 25.52 8.464 26.974 8.594 1.454.13 3.173-1.454.13-2.378-3.039-.925-7.666-2.51-7.666-2.51l-.664-4.232s3.173 3.572 3.967 4.232c.795.66.664 0 .664-.66 0-.663-.928-4.497-1.458-5.686-.525-1.19-1.715-1.059-1.715-1.059v-.794s2.51.66 3.83 1.193c1.323.526 4.235 1.316 4.235 1.316v.664s-2.118-.664-1.983-.13c.13.525.924 4.757 1.055 5.417.134.664.66 1.06 1.19 1.193.533.13 1.189-.928 1.189-1.588v-1.719l1.983.395v.534l.929.13.391-.925s.929-.794 1.853-.66c.929.13 2.648.66 3.043 1.455.395.79 1.454.66 1.454.66s.79-1.06 1.85-.795c1.055.269.794.4 1.193.66.395.265.66.265 1.32.4.66.13.925-1.59.925-1.59s.794-.13 1.323-.13c.526 0 .526.925.925.925.395 0 1.32-1.193 1.984-1.719.66-.53 1.588-1.454 2.509-2.379.929-.928 6.48-7.405 6.48-7.405l.795-3.438s-3.703 4.102-9.124 8.196c-5.422 4.101-16.396.664-19.7-.265-3.303-.925-35.034-12.163-46.671-12.953-11.634-.795-32.652.79-35.3.924-2.64.135-13.878.925-16.525 1.194-2.64.26-7.536 1.45-7.536 1.45l2.027-5.034S39.838 5.61 53.803 6.163c13.969.557 17.158-.92 45.23 8.318 25.942 8.531 25.72 7.204 30.376 5.761 2.936-.908 6.322-4.544 7.76-5.761 1.439-1.221-.379-3.833-2.216-2-2.106 2.107-6.983 6.655-13.527 5.213-6.54-1.439-11.416-4.102-11.416-4.102l1.553-2.438s8.974 4.319 12.634 3.434c3.663-.885 7.65-2.438 9.092-5.208 1.442-2.77 4.102-4.324 6.765-2.328 2.66 1.996 2.88 5.323 2.992 6.43.106 1.106-.664 5.211-.664 5.211s1.77-2.552 2.327-3.106a111.12 111.12 0 0 1 1.992-1.884l-.664-.554s-.996-.336-1.328-1.106c-.336-.783 1.107-3.553 1.107-4.991v-2.66l1.22-2.11s2.66-.106 3.992-.331c1.328-.222 3.876-1.439 5.982-.332 2.11 1.11 1.664 2.327 1.664 2.327l1.332 2.217s6.208-2.102 8.425-2.438c2.216-.332 8.424-.885 9.977-.775 1.55.11 2.332 1.328 2.664 2.438.332 1.11-.332 1.996-.332 1.996l5.208 3.213s2.434-.664 2.991-.332c.554.332 2.217 2.217 2.55 2.884.331.664-.333 3.102-.333 3.102l1.774 1.443s-.11-3.66-.11-5.43c0-1.774.553-2.995 1.553-3.774.996-.774 5.323-2.548 7.203-.885 1.885 1.664 6.987 7.315 12.638 5.876 5.654-1.438 9.314-3.323 9.314-3.323l1.995 3.323s-8.867 4.655-12.862 4.102c-3.991-.557-9.757-2.774-11.863-5.655-.944-1.3-4.766-.114-2.438 1.885 2.15 1.838 9.614 7.931 15.186 6.872 6.433-1.217 30.85-9.456 33.592-10.195 10.642-2.885 30.29-5.066 37.244-5.659 15.636-1.327 41.021 2.885 41.021 2.885l4.703 5.931s-9.184-1.798-13.092-2.22c-3.418-.368-22.378-3.375-43.072-.949-18.308 2.154-36.947 7.39-48.77 11.511-11.824 4.118-16.562 2.545-22.066-.636-5.77-3.34-8.907-9.63-8.907-9.63s.063 1.952.276 2.584c.214.632.712 1.873 1.245 2.928.526 1.06 2.533 3.486 3.272 4.963.74 1.482 3.268 7.706 3.588 8.975.316 1.264 1.371 3.904 2.952 4.959 1.589 1.055 12.353.21 14.992-.316 2.644-.53 23.441-6.967 34.521-9.71 11.088-2.746 23.65-3.485 24.287-3.382.628.107 1.371-.735.948-1.371-.423-.632-1.166-.423-1.166-.423v-.526s2.115-.739 2.541-.845c.42-.107 1.79-4.54 2.213-5.596.423-1.055-1.268-.948-1.268-.948v-.632l6.757.102-.21.53s-1.584.213-1.687.739c-.106.525-.533 2.323-.533 2.323s1.482-1.165 2.64-1.9c1.165-.74 2.848-.32 2.848-.32l.111-.629-1.375-.956 7.176.213-1.79.846-.846 2.85 1.376 1.9 1.687-.213 1.055-1.688 1.375.21-2.011 4.228-3.063.312s-.419 1.059 0 1.059c.427 0 1.905 0 2.644-.107.739-.102 1.794-.632 2.217-.952.422-.316 2.849-2.956 2.849-2.956l-1.798-2.11 3.592-2.956 2.746 2.956-2.323 2.217.739.846-1.688 2.742s4.75-.526 5.28-.526c.529 0 .316 1.692.316 1.692s.628-.32 1.055-.32c.423 0 .735.422.735.422l1.165-.422s.846.32.949.632c.103.32-.846 2.64-.846 2.64l4.963-1.372-10.029-6.12 5.386-1.692 12.772 6.967 1.794 6.654s-5.489-2.96-6.335-3.169c-.841-.213-2.216 1.158-2.216 1.158s2.849 3.276 3.592 4.224c.735.952 1.264 2.853 1.264 2.853s-3.904-1.588-4.536-1.691c-.637-.103-3.063-.846-3.063-.846s.107 1.691.21 2.22l.739 3.798s-1.056-.525-2.533-.948c-1.474-.427-5.912-2.43-5.912-2.43l-.107 4.33s1.901.633 2.96.842c1.051.214 3.481.214 5.275.214 1.794 0 4.96-.846 4.96-.846s.213.526-.526 1.585c-.739 1.055-2.426 1.162-3.375 1.58-.952.423-3.592.743-3.592.743s2.008 1.58 2.85 1.901c.845.316 3.378 1.158 4.433 1.371 1.055.21 2.853 1.269 1.375 1.688-1.481.422-2.955.213-4.54.213s-4.434-.632-4.434-.632 2.956 1.37 4.327 2.106c1.375.743 4.122 1.375 5.07 1.798.949.423 2.32.632.949 1.162-1.372.525-4.327.735-5.805.632-1.482-.107-4.015-.632-4.015-.632s.427 2.746.636 3.374c.21.636 1.478 4.224 1.478 4.224l-1.9.74-4.118-3.909-.74 3.383-1.69-1.162-1.581-4.54s-1.371.845-1.798 1.162c-.419.316-.948 1.9-.948 1.9l-1.269-.53s.846-2.532.956-3.271c.103-.74 0-2.11 0-2.11l-1.375.102-.427.317c-.418.32-.735.529-1.05.952-.32.423-1.06.316-1.688.316-.636 0-1.059.316-1.059.316s.948 1.691 1.687 2.64c.74.948 2.008 2.956 2.008 2.956l-1.692.632s-1.474-.74-2.106-1.265c-.64-.53-4.228-3.272-4.643-3.904-.427-.636-1.059-.846-1.059-.423s-.107 4.011-.107 5.066c0 1.055-1.161 2.004-1.161 2.004s-.74-1.372-.846-2.217c-.103-.842-.419-4.96-.419-5.382 0-.423-.32-1.269-.636-.949-.312.317-1.051.735-2.11 1.794-1.055 1.056-2.43 2.324-2.43 2.324l-2.008-.743s.214-.632.743-1.687c.53-1.055.632-3.904.632-4.963 0-1.056-.26-3.592-.26-3.592 0-.277-.838-.696-1.261 0-.419.703-1.162 2.378-1.442 2.801-.281.42-.747 1.352-.89 1.585-.134.229-.043.743-.557 1.256-.513.514-.932.328-.932.328l-.19.234c-.182.229-3.26 2.284-5.358 2.141-1.257-.079-4.616-1.165-5.359-1.537-.746-.375-3.078-1.166-3.406-1.07-.328.09-1.395.695-1.909.837-.517.138-2.801-.747-3.406-.98-.604-.233-.743.142-.652.514.091.371 1.166 2.47 1.166 2.47s-.372.28-.696.375c-.328.095-.379.652-.379.652s.19 0 2.335 7.27c2.146 7.276-1.726 16.93-1.928 17.404-1.316 3.058-5.358 8.302-5.358 8.302s.083.446.367.735c.285.284.652 1.229 1.103 1.43.45.206 3.722 2.253 5.074 2.782 1.347.53 4.208-.49 5.638-.695 1.431-.206 1.636.94 1.68 2.248.04 1.312.363 1.798.857 2.126.49.328 3.395 1.186 3.395 1.186l-.048.434s-3.698-.79-4.753-1.19c-1.06-.398-1.324-1.852-1.324-2.512 0-.656-.13-1.055-1.72-.656-1.588.39-2.907.79-3.437.79-.53 0-4.493-1.984-4.892-2.248-.395-.265-.79 0-.92 1.059-.139 1.055-.795 2.643-1.59 3.434-.794.798-1.189 2.382-1.189 3.177v2.774l-2.118.794s-1.324-1.984-1.715-2.379c-.403-.4-1.987-1.984-2.383-2.648-.395-.66-.41-3.28-.41-3.28s-1.044.902-1.312 1.562c-.261.663.403 2.114.403 3.046 0 .92-.265 2.51-.265 3.3 0 .798-.269 1.853-.269 1.853l-1.845.66s-.139-.53-.53-1.19c-.399-.66-1.193-1.849-1.723-2.509-.525-.664-.924-1.588-.924-1.588s-2.114 1.719-2.905 2.114c-.794.395-1.588.53-1.588.53s-.66 1.323-1.324 1.849c-.664.533-2.245.794-2.245.794s-1.6 1.446-1.987 2.114c-.459.794-2.213.348-2.213.348-.723 1.43-.779 1.324-1.09 1.64-.526.525-1.59.264-1.59.264s-.284.522-.671 1.119c-.616.94-1.968.466-1.968.466s-.533.794-.929 1.32c-.395.533-1.185.533-1.718.533 0 0-.53 1.186-.93 1.45-.39.265-1.054.53-1.185-.525-.13-1.059.13-2.118.4-2.908.26-.795 1.715-1.063 2.114-1.063.395 0 .399-.526.79-1.45.395-.925 1.573-1.17 2.197-1.261.439-.06.45-.589.98-1.648.526-1.059 1.32-.66 2.24-1.059.933-.395.139-1.055.933-1.984.794-.924 1.45-.79 2.114-.79.664 0 .526-1.059 1.19-1.853.66-.795 1.323-.925 1.715-.925.403 0 .928-.794 1.458-1.588.525-.795 2.114-1.06 2.114-1.06l-.66-.66s-1.984-.13-2.912.135c-.921.265-1.585 0-1.585 0s.4-.79.798-1.324c.395-.53 1.715-2.244 1.715-2.244l-1.19.13c-1.189.134-3.172 1.32-3.172 1.32s-1.06-.13-.79-.925c.26-.794 1.714-2.778 1.983-3.169.26-.399-.573-.873-1.762-.743-1.194.135-2.075.743-2.87 1.004-.79.265-1.983 0-2.647 0-.656 0-1.983-1.984-2.64-2.245-.663-.264-1.584-.928-2.513-1.193-.924-.265-1.718.134-3.572-.79-1.85-.929.4-4.102.135-4.762-.265-.664-1.585-1.454-.795-2.118.795-.66 2.249-3.304 2.249-3.304s-.4-1.584-2.774-2.513c-2.383-.924-2.513-3.039-2.782-4.358-.261-1.324.533-4.892.533-4.892l1.85.525s.53 1.324.66 2.114c.134.798.66 1.458 3.967 1.194 3.307-.265 3.699 1.059 4.232 2.378.526 1.32 1.45 4.493 2.114 4.893.664.395 1.585.66 2.513.264.929-.395 2.644-.264 3.569.79.928 1.06 1.719 1.328 2.513 1.06.794-.265 2.114-1.85 2.114-1.85s0-1.19.53-2.248c.529-1.055 2.382-1.589 2.382-1.589l.13-2.64-1.588-.268s-1.19-.79-1.454-1.45c-.265-.664-2.778-2.118-2.778-2.118s-.79 1.454-1.059 2.382c-.26.921-1.715 2.774-1.715 2.774l-2.908-.13s-.265-3.177-.13-4.232c.13-1.06-.534-5.817-.534-5.817l1.458-1.85s-3.707-.529-9.124.791c-2.727.664-10.575 4.098-10.575 4.098s-.794 2.778-1.059 3.438c-.265.664-1.458 4.362-1.458 4.362s2.648 2.648 3.177 3.174c.53.529 2.909 3.31 2.909 3.31H206.8c-.395 0-2.11.131-2.11.131s1.32 1.984 1.984 3.04c.66 1.058 2.774 5.286 2.774 5.286s-2.774-.66-3.307-1.055c-.526-.399-2.77-1.324-2.77-1.324s.395 3.04.521 3.7c.134.663.664 3.437.664 3.437s-2.778-3.17-3.304-3.963c-.53-.795-1.193-1.324-1.32-.795-.134.53-.798 7.536-.798 7.536l-5.682-7.401-4.228 3.173s.525 1.185.126 1.719c-.395.525-.924 1.055-.924 1.055l2.382 1.723s1.585-.664 2.245.39c.66 1.06-.794 1.59-.794 1.59l.663.66s2.115-1.06 2.774.928c.411 1.233-1.32 1.98-1.32 1.98l.396.664s2.379-.53 2.379 2.509c0 1.719-2.514.794-2.514.794l-.525.794s1.853 1.585.13 3.043c-1.213 1.028-3.173-.403-3.173-.403l-.26.403.011.028c.095.237.64 1.738-.94 2.347-1.715.664-2.51-1.45-2.51-1.45s0 .012.004.043c.024.297.107 2.059-1.592 1.94-1.853-.134-1.853-1.983-1.853-1.983h-.526s.13 1.19-1.458 1.32c-1.585.13-1.585-.795-1.585-.795l-.399.53-.778 1.98s-.806-.66-1.336-1.052c-.525-.399-3.043-2.746-3.043-2.746l.064 7.852-1.779-.28.4 1.912-12.298.53.265-2.308-1.853.458-.13-7.006-3.45 2.64-2.024-3.012-.743.107s-.13 1.853-2.378 1.72c-1.45-.088-1.45-1.985-1.45-1.985h-.664s.023 2.45-2.225 2.186c-2.249-.265-1.079-2.32-1.079-2.32h-.53s-1.059 1.324-2.513.664-.395-2.379-.395-2.379l-.399-.134s-.66 1.454-2.379 0c-1.719-1.454.395-2.644.395-2.644l-.395-.53s-1.928.34-1.984-1.323c-.079-2.513 2.38-2.114 2.38-2.114l.134-.66s-2.118-.135-1.585-1.853c.526-1.715 3.039-1.056 3.039-1.056s-.53-1.059-.135-1.849c.4-.794 2.249-.664 2.249-.664l1.85-2.114s-.262-.399-.657-1.19c-.399-.79 0-1.193 0-1.193s-1.987-1.055-1.592-2.114c.399-1.059-.656-.92-1.85-.13-1.189.79-2.774 3.173-3.303 3.833-.53.664-1.853 2.114-1.853 2.114s-.261-.526-.261-1.186c0-.663-.134-6.749-.134-6.749s-3.304 2.118-3.968 2.778c-.66.664-1.85.929-1.85.929s.53-2.38 1.06-3.438c.525-1.06 1.85-4.497 1.85-4.497s-2.115 1.059-2.644 1.193c-.53.13-3.964.921-3.964.921s.391-1.85 1.32-2.77c.925-.929 3.568-4.766 3.568-4.766l-4.098-.66 4.632-5.022s-.4-2.248-.664-2.644c-.265-.399-1.06-3.173-1.324-3.837-.265-.66-4.098-2.509-5.153-2.643-1.059-.13-1.059.395-1.458 1.324-.395.924-1.055 2.778-1.853 3.568-.79.794-3.17 1.984-3.699 2.647-.53.66-.395 2.375-.66 2.905-.265.53-1.059 1.723-1.853 2.778-.79 1.059.134 1.984 1.193 1.454 1.055-.53 1.186-1.719 2.245-3.304 1.059-1.588 3.042-1.983 3.042-1.983s-.53.924-1.059 1.983c-.525 1.056.27 2.644-.13 3.304-.4.66-2.513 2.513-2.513 2.513l1.059 2.249s-1.589.66-2.513.924c-.925.265-1.85 1.06-2.644 1.72-.79.655-1.454 1.058-.66 1.058.79 0 1.32-.399 2.908-.264 1.585.13 2.778.66 2.778.66s-.794.529-1.722.92c-.925.4-2.115 2.253-2.115 2.253s.795.525 1.06 1.189c.264.66.794 1.454.794 1.454l-1.589.53c-.794.264-2.51.66-3.307 1.19-.79.529-.13.793-.13.793s.928 0 2.248.265c1.32.261 1.584 3.17 1.584 3.17l-.79.398s-1.324-.663-2.513-1.059c-1.19-.395-2.513-.13-2.513-.13s-1.055.79-1.055 1.324c0 .525.924 1.185.924 2.114 0 .92-.794 1.584-.794 1.584s-1.19-.924-2.114-1.32c-.925-.398-1.589-.264-2.513-.264-.925 0-.795.265-3.833.395-3.043.13-1.589-.13-2.249-.66-.664-.533-1.584-.928-1.584-.928s-.53.663-.396 1.323c.13.66.396 1.454.396 2.249 0 .794-2.514 2.643-2.514 2.643s.53 1.19.265 2.249c-.265 1.055-2.643.66-2.643.66l-.135.66s1.454 1.853.395 2.908c-1.055 1.059-2.774-.13-2.774-.13s-.134 2.118-1.454 2.248c-1.324.134-1.588-1.719-1.588-1.719l-1.455-.53s-.53.925-1.983.4c-1.45-.53 0-2.644 0-2.644l-.66-.533s-1.06.264-1.72-.79c-.655-1.06.396-2.25.396-2.25l-1.055.135s-.395 1.45-.53 2.114c-.134.66-.395 1.585-.395 1.585l-.395-.53c-.399-.53-1.723-1.849-1.723-1.849l-1.32.4 1.85 3.963-8.196-4.098 3.568-1.454-.66-1.72s-2.777.66-3.038.135c-.265-.53 1.32-2.118 1.32-2.118H68.25s-.134 1.32-1.719.794c-1.585-.53-.794-1.454-.794-1.454l-1.06-.533s-.264.533-.794.533c-.529 0-.66.794-2.114-1.059-1.454-1.85 1.324-2.114 1.324-2.114l-.134-1.324s-2.114-1.185-1.454-2.114c.66-.925 1.983-.265 1.983-.265l1.06-.66s-.4-1.323.66-1.588c1.058-.26 1.193.664 1.193.664l.79-.4s-.395-1.054.395-1.189c.794-.13 1.324 0 1.324 0s-1.454-2.643-2.379-4.232c-.929-1.585-2.248-5.287-2.648-5.951-.39-.66 0-1.186.664-1.98.656-.794 1.455-1.588 2.114-1.85.66-.264-.26-.663-.395-1.457-.134-.795.265-1.19.265-1.19s-.794-1.719-.664-2.778c.135-1.059 2.249-2.908 3.173-3.303.929-.395 1.72-.79 2.38-1.324.663-.526 1.453-2.375 2.117-2.114.66.265 0 3.568 0 3.568s1.85 1.194 2.118 1.589c.261.395.787.13.526-.79-.265-.93-.526-2.383-.265-3.178.265-.794 1.719-1.983 2.513-1.983.795 0-1.324-1.455-1.85-1.72-.529-.264-3.188-.244-4.1-1.054-1.19-1.06-2.38-2.514-4.099-2.778-1.715-.265-1.849-.261-1.849-.261s.13-.4 1.055-.925c.929-.53 2.648-.399 4.363.395 1.719.79 2.379 1.455 3.706 1.455 1.32 0 2.245-.795 1.72-1.063-.534-.261-2.253-.921-2.648-1.055-.396-.13-1.455-.925-1.854-.925-.395 0-3.169-1.055-3.963-1.45-.794-.4-2.114-1.06-1.853-1.455.264-.395 4.497-2.252 4.497-2.252s-.53-1.059-1.455-1.585c-.928-.53-3.568-.395-3.438-.924.135-.53.795-1.585.795-1.585s-.925-.134-1.984.13c-1.059.261-1.589 2.115-1.589 2.115s2.308 1.596 1.063 8.33zM4.23 29.418s7.406-4.493 9.784-5.686c2.383-1.186 12.298-5.023 12.298-5.023l-6.746-2.379c-8.626 3.988-4.101 1.79-8.195 3.833-1.585.795-5.027 2.778-5.027 2.778L4.23 29.418z"/></g></g></g><g transform="translate(.219 .075)"><mask id="f" fill="#fff"><use xlink:href="#e"/></mask><g mask="url(#f)"><g transform="translate(193.628 10.903)" fill="#000"><path d="M75.448.776H.968v1.193l10.769 6.034V81.04L.969 87.181v1.194h30.577l.004.003h41.38l1.578-22.887-1.32-.458S61.66 76.966 59.009 79.416c-2.655 2.45-4.595 3.063-6.294 3.64-3.537.92-7.382.885-7.382.885l-13.175.41-.047-37.01s13.823.222 15.352.407c2.086.253 2.896.253 5.793 3.612 2.355 2.723 6.101 7.619 6.101 7.619h1.525V29.646h-1.525s-7.267 10.575-7.828 10.93c-.557.36-1.727 2.035-5.54 1.984-3.813-.052-13.93.257-13.93.257l.036-37.797s7.864-.107 14.198.438c6.33.546 9.828.656 13.977 4.15 4.15 3.493 15.067 16.268 15.067 16.268l1.64-.545L75.448.776z"/><path d="M741.889 25.33l-1.636.55S729.33 13.1 725.18 9.607c-4.145-3.493-7.642-3.604-13.976-4.149-6.339-.545-14.198-.439-14.198-.439l-.036 37.797s10.116-.308 13.93-.257c3.817.052 4.982-1.624 5.543-1.98.558-.359 7.825-10.933 7.825-10.933h1.529v29.336h-1.53s-3.742-4.9-6.097-7.622c-2.892-3.36-3.714-3.36-5.793-3.612-1.529-.186-15.352-.407-15.352-.407l.048 37.01 13.174-.41s3.837.035 7.382-.886c1.695-.577 3.64-1.19 6.295-3.64 2.651-2.45 14.17-14.379 14.17-14.379l1.32.454-1.569 22.888H696.47l-.012-.004h-30.573v-1.193l10.768-6.141V8.003l-10.768-6.034V.775h74.483"/></g></g></g><g transform="translate(2.219 1.026)"><mask id="h" fill="#fff"><use xlink:href="#g"/></mask><g mask="url(#h)"><g transform="translate(735.995 7.952)" fill="#000"><path transform="translate(.657 2.74)" d="M61.225356 27.6610933L87.9025046 87.6501013 117.120522 87.6501013 117.08891 86.3579331 106.44334 80.268541 106.44334 7.4368825 117.08891 1.3474904 117.120522 0.0553221865 75.5735602 0.0553221865 75.5735602 1.2447492 86.3455803 7.28277069 86.3455803 69.5834559 54.8672561 1.26055554 51.0579284 1.26055554 17.5010707 70.9941716 17.5010707 7.4368825 28.1584948 1.3474904 28.1901075 0.0553221865 0.240548553 0.0553221865 0.240548553 1.2447492 11.008617 7.28277069 11.008617 80.430556 0.240548553 86.4606743 0.240548553 87.6501013 31.8571781 87.6501013z"/><path d="M256.757 89.17l1.64-21.627-1.446-.289s-14.969 16.312-16.703 17.668c-.822.64-7.92 5.694-15.506.383 0 0-7.378-5.018-2.648-14.289 4.73-9.266 18.73-15.83 22.307-17.956 3.572-2.122 21.469-10.827 19.208-28.574C261.491 7.78 246.554 2.97 240.343 1.788c-13.226-2.505-33.692 3.09-33.692 3.09l-1.549 22.69 1.743.198s14.957-17.87 20.852-20.082c5.884-2.22 14-2.995 18.822 3.185 4.833 6.18.818 14.882-3.956 18.154-6.76 4.63-16.588 9.827-23.456 14.383-7.73 5.118-12.578 12.491-13.621 20.952-1.443 11.775 5.508 21.43 14.486 25.001 8.294 3.304 15.064 2.608 21.145 2.225 6.295-.399 15.64-2.414 15.64-2.414"/></g></g></g></g></svg>